<?xml version="1.0" encoding="UTF-8" standalone="no"?>
<!DOCTYPE svg PUBLIC "-//W3C//DTD SVG 1.1//EN" "http://www.w3.org/Graphics/SVG/1.1/DTD/svg11.dtd">
<svg width="100%" height="100%" viewBox="0 0 200 200" version="1.1" xmlns="http://www.w3.org/2000/svg" xmlns:xlink="http://www.w3.org/1999/xlink" xml:space="preserve" xmlns:serif="http://www.serif.com/" style="fill-rule:evenodd;clip-rule:evenodd;stroke-linecap:round;stroke-linejoin:round;stroke-miterlimit:1.5;">
    <rect id="Artboard1" x="0" y="0" width="200" height="200" style="fill:none;"/>
    <clipPath id="_clip1">
        <rect id="Artboard11" serif:id="Artboard1" x="0" y="0" width="200" height="200"/>
    </clipPath>
    <g clip-path="url(#_clip1)">
        <g transform="matrix(1.21212,0,0,1.21212,-42.4242,-32.7273)">
            <path d="M117.5,27c45.533,-0 82.5,36.967 82.5,82.5c0,45.533 -36.967,82.5 -82.5,82.5c-45.533,0 -82.5,-36.967 -82.5,-82.5c0,-45.533 36.967,-82.5 82.5,-82.5Zm0,4.95c42.801,-0 77.55,34.749 77.55,77.55c0,42.801 -34.749,77.55 -77.55,77.55c-42.801,0 -77.55,-34.749 -77.55,-77.55c-0,-42.801 34.749,-77.55 77.55,-77.55Z" style="fill:#f2f2f2;"/>
        </g>
        <g transform="matrix(1,0,0,1,14,0)">
            <path d="M100,60l-40,40l40,40" style="fill:none;stroke:#f2f2f2;stroke-width:6px;"/>
        </g>
    </g>
</svg>
