<?xml version="1.0" encoding="UTF-8" standalone="no"?>
<!DOCTYPE svg PUBLIC "-//W3C//DTD SVG 1.1//EN"
 "http://www.w3.org/Graphics/SVG/1.1/DTD/svg11.dtd">
<!-- Generated by graphviz version 2.40.1 (20161225.0304)
 -->
<!-- Title: models_diagram Pages: 1 -->
<svg width="2629pt" height="374pt"
 viewBox="0.00 0.00 2628.74 374.00" xmlns="http://www.w3.org/2000/svg" xmlns:xlink="http://www.w3.org/1999/xlink">
<g id="graph0" class="graph" transform="scale(1 1) rotate(0) translate(4 370)">
<title>models_diagram</title>
<polygon fill="transparent" stroke="transparent" points="-4,4 -4,-370 2624.7445,-370 2624.7445,4 -4,4"/>
<!-- _diagram_info -->
<g id="node1" class="node">
<title>_diagram_info</title>
<text text-anchor="start" x="8" y="-351.6" font-family="Times,serif" font-size="13.00" fill="#000000">Models diagram</text>
<text text-anchor="start" x="8" y="-337.6" font-family="Times,serif" font-size="13.00" fill="#000000">Date: Nov 12 2020 &#45; 16:44</text>
<text text-anchor="start" x="8" y="-323.6" font-family="Times,serif" font-size="13.00" fill="#000000">Migration version: 20201017224430</text>
<text text-anchor="start" x="8" y="-309.6" font-family="Times,serif" font-size="13.00" fill="#000000">Generated by RailRoady 1.5.3</text>
<text text-anchor="start" x="8" y="-295.6" font-family="Times,serif" font-size="13.00" fill="#000000">http://railroady.prestonlee.com</text>
</g>
<!-- Ability -->
<g id="node2" class="node">
<title>Ability</title>
<polygon fill="none" stroke="#000000" points="336,-345 272,-345 272,-309 336,-309 336,-345"/>
<text text-anchor="middle" x="304" y="-323.3" font-family="Times,serif" font-size="14.00" fill="#000000">Ability</text>
</g>
<!-- ApplicationRecord -->
<g id="node3" class="node">
<title>ApplicationRecord</title>
<ellipse fill="none" stroke="#000000" cx="451" cy="-327" rx="96.6831" ry="18"/>
<text text-anchor="middle" x="451" y="-323.3" font-family="Times,serif" font-size="14.00" fill="#000000">ApplicationRecord</text>
</g>
<!-- Basket -->
<g id="node4" class="node">
<title>Basket</title>
<ellipse fill="none" stroke="#000000" cx="609" cy="-327" rx="42.7926" ry="18"/>
<text text-anchor="middle" x="609" y="-323.3" font-family="Times,serif" font-size="14.00" fill="#000000">Basket</text>
</g>
<!-- CookLevel -->
<g id="node5" class="node">
<title>CookLevel</title>
<ellipse fill="none" stroke="#000000" cx="351" cy="-234" rx="59.5901" ry="18"/>
<text text-anchor="middle" x="351" y="-230.3" font-family="Times,serif" font-size="14.00" fill="#000000">CookLevel</text>
</g>
<!-- Menu -->
<g id="node17" class="node">
<title>Menu</title>
<ellipse fill="none" stroke="#000000" cx="351" cy="-162" rx="37.0935" ry="18"/>
<text text-anchor="middle" x="351" y="-158.3" font-family="Times,serif" font-size="14.00" fill="#000000">Menu</text>
</g>
<!-- CookLevel&#45;&gt;Menu -->
<g id="edge1" class="edge">
<title>CookLevel&#45;&gt;Menu</title>
<path fill="none" stroke="#def2c7" d="M351,-205.5726C351,-200.6792 351,-195.5904 351,-190.6901"/>
<polygon fill="#def2c7" stroke="#def2c7" points="351.0001,-205.8314 346.5,-215.8313 351,-210.8314 351,-215.8314 351,-215.8314 351,-215.8314 351,-210.8314 355.5,-215.8314 351.0001,-205.8314 351.0001,-205.8314"/>
<polygon fill="#def2c7" stroke="#def2c7" points="351.0001,-190.4133 355.5,-180.4132 351,-185.4133 351,-180.4133 351,-180.4133 351,-180.4133 351,-185.4133 346.5,-180.4133 351.0001,-190.4133 351.0001,-190.4133"/>
</g>
<!-- Cuisine -->
<g id="node6" class="node">
<title>Cuisine</title>
<ellipse fill="none" stroke="#000000" cx="1047" cy="-327" rx="46.2923" ry="18"/>
<text text-anchor="middle" x="1047" y="-323.3" font-family="Times,serif" font-size="14.00" fill="#000000">Cuisine</text>
</g>
<!-- CustomList -->
<g id="node7" class="node">
<title>CustomList</title>
<ellipse fill="none" stroke="#000000" cx="499" cy="-162" rx="64.9885" ry="18"/>
<text text-anchor="middle" x="499" y="-158.3" font-family="Times,serif" font-size="14.00" fill="#000000">CustomList</text>
</g>
<!-- CustomListItem -->
<g id="node8" class="node">
<title>CustomListItem</title>
<ellipse fill="none" stroke="#000000" cx="528" cy="-90" rx="87.1846" ry="18"/>
<text text-anchor="middle" x="528" y="-86.3" font-family="Times,serif" font-size="14.00" fill="#000000">CustomListItem</text>
</g>
<!-- CustomList&#45;&gt;CustomListItem -->
<g id="edge2" class="edge">
<title>CustomList&#45;&gt;CustomListItem</title>
<path fill="none" stroke="#5d9677" d="M509.3234,-136.3696C511.7057,-130.4547 514.2526,-124.1316 516.675,-118.1171"/>
<ellipse fill="none" stroke="#5d9677" cx="507.8124" cy="-140.121" rx="4" ry="4"/>
<polygon fill="#5d9677" stroke="#5d9677" points="516.8474,-117.6891 524.7577,-110.0945 518.7155,-113.0512 520.5835,-108.4133 520.5835,-108.4133 520.5835,-108.4133 518.7155,-113.0512 516.4094,-106.732 516.8474,-117.6891 516.8474,-117.6891"/>
</g>
<!-- DailyReporting -->
<g id="node9" class="node">
<title>DailyReporting</title>
<ellipse fill="none" stroke="#000000" cx="1253" cy="-327" rx="81.4863" ry="18"/>
<text text-anchor="middle" x="1253" y="-323.3" font-family="Times,serif" font-size="14.00" fill="#000000">DailyReporting</text>
</g>
<!-- DeliveryPostcode -->
<g id="node10" class="node">
<title>DeliveryPostcode</title>
<ellipse fill="none" stroke="#000000" cx="674" cy="-162" rx="91.784" ry="18"/>
<text text-anchor="middle" x="674" y="-158.3" font-family="Times,serif" font-size="14.00" fill="#000000">DeliveryPostcode</text>
</g>
<!-- Feature -->
<g id="node11" class="node">
<title>Feature</title>
<ellipse fill="none" stroke="#000000" cx="717" cy="-327" rx="46.5926" ry="18"/>
<text text-anchor="middle" x="717" y="-323.3" font-family="Times,serif" font-size="14.00" fill="#000000">Feature</text>
</g>
<!-- Package -->
<g id="node20" class="node">
<title>Package</title>
<ellipse fill="none" stroke="#000000" cx="717" cy="-234" rx="50.0912" ry="18"/>
<text text-anchor="middle" x="717" y="-230.3" font-family="Times,serif" font-size="14.00" fill="#000000">Package</text>
</g>
<!-- Feature&#45;&gt;Package -->
<g id="edge3" class="edge">
<title>Feature&#45;&gt;Package</title>
<path fill="none" stroke="#a1ea1f" d="M717,-298.2666C717,-286.8274 717,-273.6997 717,-262.3034"/>
<polygon fill="#a1ea1f" stroke="#a1ea1f" points="717.0001,-298.6262 712.5,-308.6261 717,-303.6262 717,-308.6262 717,-308.6262 717,-308.6262 717,-303.6262 721.5,-308.6262 717.0001,-298.6262 717.0001,-298.6262"/>
<polygon fill="#a1ea1f" stroke="#a1ea1f" points="717.0001,-262.0192 721.5,-252.0191 717,-257.0192 717,-252.0192 717,-252.0192 717,-252.0192 717,-257.0192 712.5,-252.0192 717.0001,-262.0192 717.0001,-262.0192"/>
</g>
<!-- Restaurant -->
<g id="node26" class="node">
<title>Restaurant</title>
<ellipse fill="none" stroke="#000000" cx="857" cy="-234" rx="62.2891" ry="18"/>
<text text-anchor="middle" x="857" y="-230.3" font-family="Times,serif" font-size="14.00" fill="#000000">Restaurant</text>
</g>
<!-- Feature&#45;&gt;Restaurant -->
<g id="edge4" class="edge">
<title>Feature&#45;&gt;Restaurant</title>
<path fill="none" stroke="#c25a43" d="M747.7074,-305.3107C755.8853,-299.618 764.7426,-293.5268 773,-288 789.0182,-277.2789 806.9666,-265.6849 822.1474,-255.9984"/>
<polygon fill="#c25a43" stroke="#c25a43" points="747.6809,-305.3293 736.9066,-307.3703 743.5828,-308.1939 739.4848,-311.0585 739.4848,-311.0585 739.4848,-311.0585 743.5828,-308.1939 742.0629,-314.7468 747.6809,-305.3293 747.6809,-305.3293"/>
<polygon fill="#c25a43" stroke="#c25a43" points="822.2937,-255.9054 833.1462,-254.3331 826.512,-253.221 830.7303,-250.5366 830.7303,-250.5366 830.7303,-250.5366 826.512,-253.221 828.3143,-246.7401 822.2937,-255.9054 822.2937,-255.9054"/>
</g>
<!-- ItemScreen -->
<g id="node12" class="node">
<title>ItemScreen</title>
<ellipse fill="none" stroke="#000000" cx="1445" cy="-162" rx="65.7887" ry="18"/>
<text text-anchor="middle" x="1445" y="-158.3" font-family="Times,serif" font-size="14.00" fill="#000000">ItemScreen</text>
</g>
<!-- ItemScreenType -->
<g id="node13" class="node">
<title>ItemScreenType</title>
<ellipse fill="none" stroke="#000000" cx="1614" cy="-327" rx="88.2844" ry="18"/>
<text text-anchor="middle" x="1614" y="-323.3" font-family="Times,serif" font-size="14.00" fill="#000000">ItemScreenType</text>
</g>
<!-- Language -->
<g id="node14" class="node">
<title>Language</title>
<ellipse fill="none" stroke="#000000" cx="1777" cy="-327" rx="56.59" ry="18"/>
<text text-anchor="middle" x="1777" y="-323.3" font-family="Times,serif" font-size="14.00" fill="#000000">Language</text>
</g>
<!-- RestaurantUser -->
<g id="node15" class="node">
<title>RestaurantUser</title>
<ellipse fill="none" stroke="#000000" cx="867" cy="-327" rx="85.2851" ry="18"/>
<text text-anchor="middle" x="867" y="-323.3" font-family="Times,serif" font-size="14.00" fill="#000000">RestaurantUser</text>
</g>
<!-- RestaurantUser&#45;&gt;Restaurant -->
<g id="edge5" class="edge">
<title>RestaurantUser&#45;&gt;Restaurant</title>
<path fill="none" stroke="#10868d" d="M864.1444,-300.4432C862.7895,-287.8421 861.1753,-272.8302 859.8243,-260.2664"/>
<ellipse fill="none" stroke="#10868d" cx="864.5966" cy="-304.6491" rx="4" ry="4"/>
<ellipse fill="#10868d" stroke="#10868d" cx="859.3652" cy="-255.9963" rx="4" ry="4"/>
</g>
<!-- Manager -->
<g id="node16" class="node">
<title>Manager</title>
<polygon fill="none" stroke="#000000" stroke-dasharray="1,5" points="1932,-345 1852,-345 1852,-309 1932,-309 1932,-345"/>
<text text-anchor="middle" x="1892" y="-323.3" font-family="Times,serif" font-size="14.00" fill="#000000">Manager</text>
</g>
<!-- MenuItemCategorisation -->
<g id="node18" class="node">
<title>MenuItemCategorisation</title>
<ellipse fill="none" stroke="#000000" cx="295" cy="-90" rx="128.0773" ry="18"/>
<text text-anchor="middle" x="295" y="-86.3" font-family="Times,serif" font-size="14.00" fill="#000000">MenuItemCategorisation</text>
</g>
<!-- Menu&#45;&gt;MenuItemCategorisation -->
<g id="edge6" class="edge">
<title>Menu&#45;&gt;MenuItemCategorisation</title>
<path fill="none" stroke="#10a64b" d="M331.4914,-136.9176C326.272,-130.2069 320.6178,-122.9371 315.354,-116.1694"/>
<polygon fill="#10a64b" stroke="#10a64b" points="331.5893,-137.0435 334.1767,-147.6998 334.6591,-140.9902 337.7288,-144.937 337.7288,-144.937 337.7288,-144.937 334.6591,-140.9902 341.2809,-142.1743 331.5893,-137.0435 331.5893,-137.0435"/>
<polygon fill="#10a64b" stroke="#10a64b" points="315.0969,-115.8388 312.5095,-105.1825 312.0271,-111.892 308.9574,-107.9453 308.9574,-107.9453 308.9574,-107.9453 312.0271,-111.892 305.4053,-110.708 315.0969,-115.8388 315.0969,-115.8388"/>
</g>
<!-- OpeningTime -->
<g id="node19" class="node">
<title>OpeningTime</title>
<ellipse fill="none" stroke="#000000" cx="857" cy="-162" rx="73.387" ry="18"/>
<text text-anchor="middle" x="857" y="-158.3" font-family="Times,serif" font-size="14.00" fill="#000000">OpeningTime</text>
</g>
<!-- PiInterface -->
<g id="node21" class="node">
<title>PiInterface</title>
<ellipse fill="none" stroke="#000000" cx="1445" cy="-327" rx="63.0888" ry="18"/>
<text text-anchor="middle" x="1445" y="-323.3" font-family="Times,serif" font-size="14.00" fill="#000000">PiInterface</text>
</g>
<!-- Printer -->
<g id="node22" class="node">
<title>Printer</title>
<ellipse fill="none" stroke="#000000" cx="1445" cy="-234" rx="44.393" ry="18"/>
<text text-anchor="middle" x="1445" y="-230.3" font-family="Times,serif" font-size="14.00" fill="#000000">Printer</text>
</g>
<!-- PiInterface&#45;&gt;Printer -->
<g id="edge7" class="edge">
<title>PiInterface&#45;&gt;Printer</title>
<path fill="none" stroke="#beef00" d="M1445,-300.4432C1445,-288.4479 1445,-274.268 1445,-262.0949"/>
<ellipse fill="none" stroke="#beef00" cx="1445" cy="-304.6262" rx="4" ry="4"/>
<polygon fill="#beef00" stroke="#beef00" points="1445.0001,-262.0192 1449.5,-252.0191 1445,-257.0192 1445,-252.0192 1445,-252.0192 1445,-252.0192 1445,-257.0192 1440.5,-252.0192 1445.0001,-262.0192 1445.0001,-262.0192"/>
</g>
<!-- Printer&#45;&gt;ItemScreen -->
<g id="edge8" class="edge">
<title>Printer&#45;&gt;ItemScreen</title>
<path fill="none" stroke="#ccd8bd" d="M1445,-207.8144C1445,-202.2775 1445,-196.4053 1445,-190.7785"/>
<ellipse fill="none" stroke="#ccd8bd" cx="1445" cy="-211.8314" rx="4" ry="4"/>
<polygon fill="#ccd8bd" stroke="#ccd8bd" points="1445.0001,-190.4133 1449.5,-180.4132 1445,-185.4133 1445,-180.4133 1445,-180.4133 1445,-180.4133 1445,-185.4133 1440.5,-180.4133 1445.0001,-190.4133 1445.0001,-190.4133"/>
</g>
<!-- RaspberryPiStatus -->
<g id="node23" class="node">
<title>RaspberryPiStatus</title>
<ellipse fill="none" stroke="#000000" cx="2049" cy="-327" rx="98.5829" ry="18"/>
<text text-anchor="middle" x="2049" y="-323.3" font-family="Times,serif" font-size="14.00" fill="#000000">RaspberryPiStatus</text>
</g>
<!-- RaspberryPiUpdate -->
<g id="node24" class="node">
<title>RaspberryPiUpdate</title>
<ellipse fill="none" stroke="#000000" cx="2268" cy="-327" rx="102.8821" ry="18"/>
<text text-anchor="middle" x="2268" y="-323.3" font-family="Times,serif" font-size="14.00" fill="#000000">RaspberryPiUpdate</text>
</g>
<!-- Receipt -->
<g id="node25" class="node">
<title>Receipt</title>
<ellipse fill="none" stroke="#000000" cx="995" cy="-162" rx="46.2923" ry="18"/>
<text text-anchor="middle" x="995" y="-158.3" font-family="Times,serif" font-size="14.00" fill="#000000">Receipt</text>
</g>
<!-- ScreenItem -->
<g id="node28" class="node">
<title>ScreenItem</title>
<ellipse fill="none" stroke="#000000" cx="995" cy="-90" rx="65.7887" ry="18"/>
<text text-anchor="middle" x="995" y="-86.3" font-family="Times,serif" font-size="14.00" fill="#000000">ScreenItem</text>
</g>
<!-- Receipt&#45;&gt;ScreenItem -->
<g id="edge9" class="edge">
<title>Receipt&#45;&gt;ScreenItem</title>
<path fill="none" stroke="#d133b2" d="M995,-135.8144C995,-130.2775 995,-124.4053 995,-118.7785"/>
<ellipse fill="none" stroke="#d133b2" cx="995" cy="-139.8314" rx="4" ry="4"/>
<polygon fill="#d133b2" stroke="#d133b2" points="995.0001,-118.4133 999.5,-108.4132 995,-113.4133 995,-108.4133 995,-108.4133 995,-108.4133 995,-113.4133 990.5,-108.4133 995.0001,-118.4133 995.0001,-118.4133"/>
</g>
<!-- Restaurant&#45;&gt;CustomList -->
<g id="edge15" class="edge">
<title>Restaurant&#45;&gt;CustomList</title>
<path fill="none" stroke="#101bd0" d="M799.8695,-220.9811C791.8653,-219.2516 783.7343,-217.5444 776,-216 686.144,-198.0572 662.6727,-198.8378 573,-180 567.7434,-178.8957 562.2916,-177.6886 556.8389,-176.4392"/>
<ellipse fill="none" stroke="#101bd0" cx="803.9039" cy="-221.8608" rx="4" ry="4"/>
<polygon fill="#101bd0" stroke="#101bd0" points="556.8033,-176.4309 548.0883,-169.7753 551.9342,-175.2942 547.0652,-174.1574 547.0652,-174.1574 547.0652,-174.1574 551.9342,-175.2942 546.0421,-178.5396 556.8033,-176.4309 556.8033,-176.4309"/>
</g>
<!-- Restaurant&#45;&gt;DeliveryPostcode -->
<g id="edge11" class="edge">
<title>Restaurant&#45;&gt;DeliveryPostcode</title>
<path fill="none" stroke="#9995b0" d="M812.2468,-216.3922C785.7257,-205.9576 752.0407,-192.7045 724.5613,-181.893"/>
<ellipse fill="none" stroke="#9995b0" cx="816.245" cy="-217.9652" rx="4" ry="4"/>
<polygon fill="#9995b0" stroke="#9995b0" points="724.4279,-181.8405 716.7698,-173.9917 719.775,-180.0099 715.1222,-178.1792 715.1222,-178.1792 715.1222,-178.1792 719.775,-180.0099 713.4746,-182.3668 724.4279,-181.8405 724.4279,-181.8405"/>
</g>
<!-- Restaurant&#45;&gt;Menu -->
<g id="edge13" class="edge">
<title>Restaurant&#45;&gt;Menu</title>
<path fill="none" stroke="#b4675c" d="M801.2131,-220.7116C792.7949,-218.9655 784.1901,-217.3254 776,-216 621.1956,-190.9482 579.547,-206.594 425,-180 414.7386,-178.2343 403.7879,-175.8515 393.543,-173.3985"/>
<ellipse fill="none" stroke="#b4675c" cx="805.2948" cy="-221.5794" rx="4" ry="4"/>
<polygon fill="#b4675c" stroke="#b4675c" points="393.294,-173.3372 384.6626,-166.5733 388.4395,-172.1398 383.585,-170.9424 383.585,-170.9424 383.585,-170.9424 388.4395,-172.1398 382.5073,-175.3114 393.294,-173.3372 393.294,-173.3372"/>
</g>
<!-- Restaurant&#45;&gt;OpeningTime -->
<g id="edge10" class="edge">
<title>Restaurant&#45;&gt;OpeningTime</title>
<path fill="none" stroke="#3bb822" d="M857,-207.8144C857,-201.5677 857,-194.894 857,-188.6276"/>
<ellipse fill="none" stroke="#3bb822" cx="857" cy="-211.8314" rx="4" ry="4"/>
<ellipse fill="#3bb822" stroke="#3bb822" cx="857" cy="-184.4133" rx="4" ry="4"/>
</g>
<!-- Restaurant&#45;&gt;Receipt -->
<g id="edge12" class="edge">
<title>Restaurant&#45;&gt;Receipt</title>
<path fill="none" stroke="#8a8909" d="M894.5005,-214.4345C914.2847,-204.1123 938.4682,-191.4949 958.1541,-181.224"/>
<ellipse fill="none" stroke="#8a8909" cx="890.831" cy="-216.349" rx="4" ry="4"/>
<polygon fill="#8a8909" stroke="#8a8909" points="958.2675,-181.1648 969.2149,-180.5288 962.7004,-178.852 967.1333,-176.5391 967.1333,-176.5391 967.1333,-176.5391 962.7004,-178.852 965.0518,-172.5495 958.2675,-181.1648 958.2675,-181.1648"/>
</g>
<!-- RestaurantTable -->
<g id="node27" class="node">
<title>RestaurantTable</title>
<ellipse fill="none" stroke="#000000" cx="1147" cy="-162" rx="87.9851" ry="18"/>
<text text-anchor="middle" x="1147" y="-158.3" font-family="Times,serif" font-size="14.00" fill="#000000">RestaurantTable</text>
</g>
<!-- Restaurant&#45;&gt;RestaurantTable -->
<g id="edge14" class="edge">
<title>Restaurant&#45;&gt;RestaurantTable</title>
<path fill="none" stroke="#8c32e1" d="M912.5724,-220.2027C960.6296,-208.2713 1030.1882,-191.0015 1081.0537,-178.3729"/>
<ellipse fill="none" stroke="#8c32e1" cx="908.445" cy="-221.2274" rx="4" ry="4"/>
<polygon fill="#8c32e1" stroke="#8c32e1" points="1081.2603,-178.3217 1092.05,-180.2794 1086.1129,-177.1168 1090.9656,-175.912 1090.9656,-175.912 1090.9656,-175.912 1086.1129,-177.1168 1089.8813,-171.5446 1081.2603,-178.3217 1081.2603,-178.3217"/>
</g>
<!-- Template -->
<g id="node33" class="node">
<title>Template</title>
<ellipse fill="none" stroke="#000000" cx="1307" cy="-162" rx="53.8905" ry="18"/>
<text text-anchor="middle" x="1307" y="-158.3" font-family="Times,serif" font-size="14.00" fill="#000000">Template</text>
</g>
<!-- Restaurant&#45;&gt;Template -->
<g id="edge16" class="edge">
<title>Restaurant&#45;&gt;Template</title>
<path fill="none" stroke="#1e9838" d="M926.6231,-227.2474C1004.4909,-219.0103 1134.1142,-203.2456 1244,-180 1248.375,-179.0745 1252.8921,-178.0088 1257.4043,-176.8677"/>
<polygon fill="#1e9838" stroke="#1e9838" points="926.3999,-227.2707 915.9859,-223.8358 921.4271,-227.791 916.4542,-228.3114 916.4542,-228.3114 916.4542,-228.3114 921.4271,-227.791 916.9226,-232.787 926.3999,-227.2707 926.3999,-227.2707"/>
<polygon fill="#1e9838" stroke="#1e9838" points="1257.5494,-176.8294 1268.3673,-178.6252 1262.3835,-175.552 1267.2176,-174.2745 1267.2176,-174.2745 1267.2176,-174.2745 1262.3835,-175.552 1266.0679,-169.9239 1257.5494,-176.8294 1257.5494,-176.8294"/>
</g>
<!-- Table -->
<g id="node31" class="node">
<title>Table</title>
<ellipse fill="none" stroke="#000000" cx="1147" cy="-90" rx="36.2938" ry="18"/>
<text text-anchor="middle" x="1147" y="-86.3" font-family="Times,serif" font-size="14.00" fill="#000000">Table</text>
</g>
<!-- RestaurantTable&#45;&gt;Table -->
<g id="edge17" class="edge">
<title>RestaurantTable&#45;&gt;Table</title>
<path fill="none" stroke="#2b8f9e" d="M1147,-135.8144C1147,-130.2775 1147,-124.4053 1147,-118.7785"/>
<ellipse fill="none" stroke="#2b8f9e" cx="1147" cy="-139.8314" rx="4" ry="4"/>
<polygon fill="#2b8f9e" stroke="#2b8f9e" points="1147.0001,-118.4133 1151.5,-108.4132 1147,-113.4133 1147,-108.4133 1147,-108.4133 1147,-108.4133 1147,-113.4133 1142.5,-108.4133 1147.0001,-118.4133 1147.0001,-118.4133"/>
</g>
<!-- Setting -->
<g id="node29" class="node">
<title>Setting</title>
<ellipse fill="none" stroke="#000000" cx="2434" cy="-327" rx="44.6926" ry="18"/>
<text text-anchor="middle" x="2434" y="-323.3" font-family="Times,serif" font-size="14.00" fill="#000000">Setting</text>
</g>
<!-- SpiceLevel -->
<g id="node30" class="node">
<title>SpiceLevel</title>
<ellipse fill="none" stroke="#000000" cx="2559" cy="-327" rx="61.99" ry="18"/>
<text text-anchor="middle" x="2559" y="-323.3" font-family="Times,serif" font-size="14.00" fill="#000000">SpiceLevel</text>
</g>
<!-- TableItem -->
<g id="node32" class="node">
<title>TableItem</title>
<ellipse fill="none" stroke="#000000" cx="1147" cy="-18" rx="57.6901" ry="18"/>
<text text-anchor="middle" x="1147" y="-14.3" font-family="Times,serif" font-size="14.00" fill="#000000">TableItem</text>
</g>
<!-- Table&#45;&gt;TableItem -->
<g id="edge18" class="edge">
<title>Table&#45;&gt;TableItem</title>
<path fill="none" stroke="#f17eeb" d="M1147,-63.8144C1147,-58.2775 1147,-52.4053 1147,-46.7785"/>
<ellipse fill="none" stroke="#f17eeb" cx="1147" cy="-67.8314" rx="4" ry="4"/>
<polygon fill="#f17eeb" stroke="#f17eeb" points="1147.0001,-46.4133 1151.5,-36.4132 1147,-41.4133 1147,-36.4133 1147,-36.4133 1147,-36.4133 1147,-41.4133 1142.5,-36.4133 1147.0001,-46.4133 1147.0001,-46.4133"/>
</g>
</g>
</svg>
