<?xml version="1.0" encoding="UTF-8" standalone="no"?>
<!DOCTYPE svg PUBLIC "-//W3C//DTD SVG 1.1//EN" "http://www.w3.org/Graphics/SVG/1.1/DTD/svg11.dtd">
<svg width="100%" height="100%" viewBox="0 0 610 95" version="1.1" xmlns="http://www.w3.org/2000/svg" xmlns:xlink="http://www.w3.org/1999/xlink" xml:space="preserve" xmlns:serif="http://www.serif.com/" style="fill-rule:evenodd;clip-rule:evenodd;stroke-linejoin:round;stroke-miterlimit:2;">
    <g transform="matrix(1,0,0,1,-726.124,-1278.09)">
        <g id="Icon_Logo_on_Black" transform="matrix(0.137451,0,0,0.252004,751.88,1249.86)">
            <g transform="matrix(4.66636,0,0,2.54517,343.195,473.615)">
                <g transform="matrix(125.11,0,0,125.11,548.086,-26.3312)">
                    <path d="M0.638,-0.69l0,0.643c0,0.031 -0.015,0.047 -0.046,0.047l-0.085,0c-0.014,0 -0.025,-0.003 -0.032,-0.009c-0.007,-0.007 -0.014,-0.016 -0.02,-0.029l-0.209,-0.416c-0.007,-0.015 -0.014,-0.031 -0.022,-0.048c-0.008,-0.018 -0.014,-0.035 -0.019,-0.051l-0.013,0c0.001,0.017 0.003,0.034 0.004,0.051c0.001,0.017 0.001,0.033 0.001,0.05l0,0.452l-0.12,0l0,-0.643c0,-0.031 0.015,-0.047 0.046,-0.047l0.083,0c0.014,0 0.025,0.003 0.032,0.01c0.007,0.006 0.014,0.015 0.02,0.028l0.203,0.405c0.008,0.015 0.016,0.031 0.024,0.05c0.009,0.018 0.017,0.036 0.024,0.055l0.015,0c-0.001,-0.019 -0.003,-0.038 -0.004,-0.056c-0.001,-0.019 -0.001,-0.037 -0.001,-0.055l0,-0.437l0.119,0Z" style="fill:#f2f2f2;fill-rule:nonzero;"/>
                </g>
                <g transform="matrix(125.11,0,0,125.11,636.289,-26.3312)">
                    <path d="M0.339,-0.703c0.053,0 0.098,0.006 0.135,0.018c0.037,0.011 0.066,0.031 0.088,0.058c0.023,0.027 0.039,0.064 0.049,0.11c0.01,0.046 0.015,0.103 0.015,0.172c-0,0.068 -0.005,0.125 -0.015,0.171c-0.01,0.047 -0.026,0.084 -0.049,0.111c-0.022,0.027 -0.051,0.047 -0.088,0.058c-0.037,0.012 -0.082,0.018 -0.135,0.018c-0.052,-0 -0.096,-0.006 -0.133,-0.018c-0.037,-0.011 -0.066,-0.031 -0.089,-0.058c-0.023,-0.027 -0.039,-0.064 -0.049,-0.111c-0.01,-0.046 -0.015,-0.103 -0.015,-0.171c-0,-0.069 0.005,-0.126 0.015,-0.172c0.01,-0.046 0.026,-0.083 0.049,-0.11c0.023,-0.027 0.052,-0.047 0.089,-0.058c0.037,-0.012 0.081,-0.018 0.133,-0.018Zm-0,0.102c-0.039,0 -0.07,0.008 -0.093,0.024c-0.022,0.015 -0.038,0.042 -0.047,0.079c-0.009,0.037 -0.014,0.088 -0.014,0.153c-0,0.065 0.005,0.117 0.014,0.154c0.009,0.037 0.025,0.063 0.047,0.079c0.023,0.015 0.054,0.023 0.093,0.023c0.04,0 0.071,-0.008 0.093,-0.023c0.023,-0.016 0.039,-0.042 0.048,-0.079c0.009,-0.037 0.014,-0.089 0.014,-0.154c-0,-0.065 -0.005,-0.116 -0.014,-0.153c-0.009,-0.037 -0.025,-0.064 -0.048,-0.079c-0.022,-0.016 -0.053,-0.024 -0.093,-0.024Z" style="fill:#f2f2f2;fill-rule:nonzero;"/>
                </g>
                <g transform="matrix(125.11,0,0,125.11,719.863,-26.3312)">
                    <path d="M0.936,-0.69l-0.124,0.655c-0.003,0.01 -0.008,0.018 -0.017,0.025c-0.008,0.007 -0.018,0.01 -0.03,0.01l-0.124,0c-0.011,0 -0.021,-0.003 -0.03,-0.01c-0.009,-0.007 -0.014,-0.015 -0.015,-0.026l-0.091,-0.479c-0.003,-0.015 -0.005,-0.029 -0.007,-0.043c-0.002,-0.014 -0.004,-0.028 -0.006,-0.042l-0.02,0c-0.002,0.014 -0.004,0.028 -0.006,0.043c-0.003,0.014 -0.005,0.028 -0.007,0.042l-0.09,0.479c-0.002,0.011 -0.007,0.019 -0.016,0.026c-0.009,0.007 -0.019,0.01 -0.03,0.01l-0.125,0c-0.012,0 -0.022,-0.003 -0.03,-0.01c-0.009,-0.007 -0.014,-0.015 -0.016,-0.025l-0.124,-0.655l0.128,0l0.087,0.505c0.002,0.013 0.004,0.028 0.006,0.044c0.001,0.016 0.003,0.032 0.005,0.049l0.021,0c0.003,-0.015 0.005,-0.031 0.008,-0.047c0.003,-0.017 0.005,-0.032 0.008,-0.047l0.089,-0.465c0.001,-0.012 0.006,-0.021 0.015,-0.028c0.009,-0.007 0.019,-0.011 0.03,-0.011l0.113,0c0.012,0 0.022,0.004 0.03,0.011c0.008,0.007 0.013,0.016 0.016,0.028l0.089,0.466c0.003,0.015 0.006,0.031 0.008,0.047c0.003,0.016 0.005,0.031 0.007,0.046l0.022,0c0.001,-0.015 0.003,-0.031 0.005,-0.047c0.002,-0.016 0.004,-0.031 0.006,-0.045l0.087,-0.506l0.128,0Z" style="fill:#f2f2f2;fill-rule:nonzero;"/>
                </g>
            </g>
            <g transform="matrix(1.4239e-16,-1.26834,1.83341,6.12323e-17,2172.79,680.984)">
                <rect x="154.552" y="284.084" width="294.032" height="33.068" style="fill:#fcd35a;"/>
            </g>
            <g transform="matrix(4.66636,0,0,2.54517,-1956.59,473.671)">
                <g transform="matrix(123.429,0,0,123.429,548.086,-26.3312)">
                    <path d="M0.213,-0.692l0.107,0c0.036,0 0.072,0.001 0.107,0.002c0.035,0.001 0.069,0.003 0.1,0.006l-0.006,0.093l-0.27,0c-0.019,0 -0.033,0.005 -0.042,0.014c-0.008,0.009 -0.013,0.024 -0.013,0.044l0,0.376c0,0.02 0.005,0.035 0.014,0.044c0.009,0.009 0.022,0.014 0.041,0.014l0.27,0l0.006,0.093c-0.031,0.003 -0.065,0.005 -0.1,0.006c-0.035,0.001 -0.071,0.001 -0.108,0.002c-0.036,-0 -0.071,0 -0.106,0c-0.043,0 -0.077,-0.012 -0.103,-0.035c-0.025,-0.024 -0.038,-0.056 -0.039,-0.096l-0,-0.432c0.001,-0.04 0.014,-0.072 0.039,-0.095c0.026,-0.024 0.06,-0.036 0.103,-0.036Zm-0.124,0.285l0.394,0l-0,0.092l-0.394,0l-0,-0.092Z" style="fill:#f2f2f2;fill-rule:nonzero;"/>
                </g>
                <g transform="matrix(123.429,0,0,123.429,617.207,-26.3312)">
                    <path d="M0.76,-0.69c0.031,0 0.047,0.016 0.048,0.048l0.027,0.642l-0.119,-0l-0.024,-0.591l-0.019,0l-0.129,0.463c-0.006,0.027 -0.023,0.041 -0.051,0.041l-0.088,-0c-0.029,-0 -0.046,-0.014 -0.053,-0.041l-0.129,-0.463l-0.019,0l-0.022,0.591l-0.119,-0l0.027,-0.642c0.001,-0.032 0.017,-0.048 0.048,-0.048l0.125,0c0.027,0 0.043,0.014 0.05,0.041l0.106,0.378c0.005,0.016 0.009,0.032 0.012,0.048c0.003,0.016 0.006,0.032 0.01,0.048l0.015,0c0.004,-0.016 0.008,-0.032 0.011,-0.048c0.003,-0.016 0.007,-0.032 0.011,-0.049l0.106,-0.377c0.006,-0.027 0.023,-0.041 0.051,-0.041l0.125,0Z" style="fill:#f2f2f2;fill-rule:nonzero;"/>
                </g>
                <g transform="matrix(123.429,0,0,123.429,725.454,-26.3312)">
                    <path d="M0.213,-0.692l0.107,0c0.036,0 0.072,0.001 0.107,0.002c0.035,0.001 0.069,0.003 0.1,0.006l-0.006,0.093l-0.27,0c-0.019,0 -0.033,0.005 -0.042,0.014c-0.008,0.009 -0.013,0.024 -0.013,0.044l0,0.376c0,0.02 0.005,0.035 0.014,0.044c0.009,0.009 0.022,0.014 0.041,0.014l0.27,0l0.006,0.093c-0.031,0.003 -0.065,0.005 -0.1,0.006c-0.035,0.001 -0.071,0.001 -0.108,0.002c-0.036,-0 -0.071,0 -0.106,0c-0.043,0 -0.077,-0.012 -0.103,-0.035c-0.025,-0.024 -0.038,-0.056 -0.039,-0.096l-0,-0.432c0.001,-0.04 0.014,-0.072 0.039,-0.095c0.026,-0.024 0.06,-0.036 0.103,-0.036Zm-0.124,0.285l0.394,0l-0,0.092l-0.394,0l-0,-0.092Z" style="fill:#f2f2f2;fill-rule:nonzero;"/>
                </g>
                <g transform="matrix(123.429,0,0,123.429,794.574,-26.3312)">
                    <path d="M0.638,-0.69l0,0.643c0,0.031 -0.015,0.047 -0.046,0.047l-0.085,0c-0.014,0 -0.025,-0.003 -0.032,-0.009c-0.007,-0.007 -0.014,-0.016 -0.02,-0.029l-0.209,-0.416c-0.007,-0.015 -0.014,-0.031 -0.022,-0.048c-0.008,-0.018 -0.014,-0.035 -0.019,-0.051l-0.013,0c0.001,0.017 0.003,0.034 0.004,0.051c0.001,0.017 0.001,0.033 0.001,0.05l0,0.452l-0.12,0l0,-0.643c0,-0.031 0.015,-0.047 0.046,-0.047l0.083,0c0.014,0 0.025,0.003 0.032,0.01c0.007,0.006 0.014,0.015 0.02,0.028l0.203,0.405c0.008,0.015 0.016,0.031 0.024,0.05c0.009,0.018 0.017,0.036 0.024,0.055l0.015,0c-0.001,-0.019 -0.003,-0.038 -0.004,-0.056c-0.001,-0.019 -0.001,-0.037 -0.001,-0.055l0,-0.437l0.119,0Z" style="fill:#f2f2f2;fill-rule:nonzero;"/>
                </g>
                <g transform="matrix(123.429,0,0,123.429,881.592,-26.3312)">
                    <path d="M0.605,-0.69l0,0.42c0,0.069 -0.008,0.124 -0.025,0.165c-0.017,0.041 -0.044,0.071 -0.082,0.09c-0.038,0.019 -0.089,0.028 -0.153,0.028c-0.067,0 -0.12,-0.009 -0.16,-0.028c-0.04,-0.019 -0.069,-0.049 -0.086,-0.09c-0.018,-0.041 -0.027,-0.096 -0.027,-0.165l0,-0.42l0.125,0l0,0.42c0,0.045 0.005,0.081 0.014,0.108c0.009,0.027 0.023,0.046 0.044,0.057c0.021,0.011 0.049,0.016 0.084,0.016c0.035,0 0.063,-0.005 0.084,-0.016c0.02,-0.011 0.035,-0.03 0.044,-0.057c0.009,-0.027 0.013,-0.063 0.013,-0.108l0,-0.42l0.125,0Z" style="fill:#f2f2f2;fill-rule:nonzero;"/>
                </g>
            </g>
            <g transform="matrix(1,0,0,1,-145.507,0)">
                <g transform="matrix(2.99094,0,0,2.95475,-2378.67,6.0152)">
                    <path d="M1009.9,62.162c-0,-14.225 -20.918,-25.774 -46.683,-25.774l-135.24,0c-25.765,0 -46.683,11.549 -46.683,25.774l0,74.667c0,14.225 20.918,25.774 46.683,25.774l135.24,0c25.765,0 46.683,-11.549 46.683,-25.774l-0,-74.667Zm-40.006,0l0,74.667c0,2.035 -2.992,3.687 -6.677,3.687c-0,-0 -135.24,-0 -135.24,-0c-3.685,-0 -6.677,-1.652 -6.677,-3.687l-0,-74.667c-0,-2.035 2.992,-3.687 6.677,-3.687l135.24,0c3.685,0 6.677,1.652 6.677,3.687Z" style="fill:#04aec4;"/>
                </g>
                <g transform="matrix(1.00454,0,0,1,-2.93776,-0.618326)">
                    <rect x="154.552" y="267.987" width="294.032" height="65.263" style="fill:#04aec4;"/>
                </g>
            </g>
        </g>
    </g>
</svg>
