<svg xmlns="http://www.w3.org/2000/svg" width="37.354" height="37.5" viewBox="0 0 37.354 37.5">
  <defs>
    <style>
      .cls-1 {
        fill: #545454;
      }
    </style>
  </defs>
  <g id="bill" transform="translate(0)">
    <path id="Path_217" data-name="Path 217" class="cls-1" d="M230.384,72.849c-.169-.06-.341-.122-.512-.186V69.746a1.361,1.361,0,0,1,.589.31.732.732,0,0,0,1.1-.965,2.822,2.822,0,0,0-1.691-.84v-.518a.732.732,0,0,0-1.465,0v.6c-.076.019-.152.039-.231.062a2.716,2.716,0,0,0-1.861,2.13,2.4,2.4,0,0,0,.789,2.365,6.2,6.2,0,0,0,1.3.753v3.719a2.564,2.564,0,0,1-1.276-.506.732.732,0,1,0-.8,1.226,3.952,3.952,0,0,0,2.078.75v.617a.732.732,0,1,0,1.465,0v-.683a3.294,3.294,0,0,0,2.481-2.646A2.86,2.86,0,0,0,230.384,72.849Zm-2.375-1.109a.969.969,0,0,1-.254-.941,1.306,1.306,0,0,1,.652-.92V72A3.46,3.46,0,0,1,228.009,71.74Zm2.9,4.139a1.822,1.822,0,0,1-1.036,1.355V74.221l.024.009A1.423,1.423,0,0,1,230.908,75.879Z" transform="translate(-209.518 -62.093)"/>
    <path id="Path_218" data-name="Path 218" class="cls-1" d="M62.1,94.2h8.057a1.1,1.1,0,0,0,0-2.2H62.1a1.1,1.1,0,0,0,0,2.2Z" transform="translate(-56.605 -85.262)"/>
    <path id="Path_219" data-name="Path 219" class="cls-1" d="M62.1,154.2h8.057a1.1,1.1,0,0,0,0-2.2H62.1a1.1,1.1,0,0,0,0,2.2Z" transform="translate(-56.605 -140.867)"/>
    <path id="Path_220" data-name="Path 220" class="cls-1" d="M62.1,214.2h8.057a1.1,1.1,0,0,0,0-2.2H62.1a1.1,1.1,0,0,0,0,2.2Z" transform="translate(-56.605 -196.473)"/>
    <path id="Path_221" data-name="Path 221" class="cls-1" d="M78.212,272H62.1a1.1,1.1,0,0,0,0,2.2H78.212a1.1,1.1,0,0,0,0-2.2Z" transform="translate(-56.605 -252.078)"/>
    <path id="Path_222" data-name="Path 222" class="cls-1" d="M78.212,332H62.1a1.1,1.1,0,0,0,0,2.2H78.212a1.1,1.1,0,0,0,0-2.2Z" transform="translate(-56.605 -307.684)"/>
    <path id="Path_223" data-name="Path 223" class="cls-1" d="M78.212,392H62.1a1.1,1.1,0,0,0,0,2.2H78.212a1.1,1.1,0,0,0,0-2.2Z" transform="translate(-56.605 -363.289)"/>
    <path id="Path_224" data-name="Path 224" class="cls-1" d="M37.761,22.242a1.1,1.1,0,0,0-1.139.077l-2.483,1.751L31.656,22.32a1.1,1.1,0,0,0-1.267,0L28.1,23.936V1.1A1.1,1.1,0,0,0,26.368.2L23.885,1.952,21.4.2a1.1,1.1,0,0,0-1.267,0l-2.48,1.75L15.178.2A1.1,1.1,0,0,0,13.91.2l-2.477,1.75L8.955.2A1.1,1.1,0,0,0,7.688.2L5.21,1.951,2.732.2A1.1,1.1,0,0,0,1,1.1V30.542A6.966,6.966,0,0,0,7.958,37.5h24.17a6.233,6.233,0,0,0,6.226-6.226V23.218a1.1,1.1,0,0,0-.593-.975ZM3.2,30.542V3.219l1.379.974a1.1,1.1,0,0,0,1.268,0l2.478-1.75L10.8,4.193a1.1,1.1,0,0,0,1.268,0l2.477-1.75,2.477,1.75a1.1,1.1,0,0,0,1.267,0l2.481-1.75,2.483,1.751a1.1,1.1,0,0,0,1.266,0L25.9,3.218V31.274A6.2,6.2,0,0,0,27.387,35.3H7.958A4.766,4.766,0,0,1,3.2,30.542Zm32.959.732a4.028,4.028,0,1,1-8.057,0V26.5a1.1,1.1,0,0,0,.443-.184l2.481-1.75,2.483,1.751a1.1,1.1,0,0,0,1.266,0l1.384-.976Z" transform="translate(-1 0)"/>
  </g>
</svg>
