<svg id="callback_circle" xmlns="http://www.w3.org/2000/svg" width="30" height="30" viewBox="0 0 30 30">
  <path id="circle" data-name="circle" d="M15,0A15,15,0,1,0,30,15,15,15,0,0,0,15,0Zm0,28.125A13.14,13.14,0,1,1,28.125,15,13.139,13.139,0,0,1,15,28.125Z" fill="black"/>
  <path id="Icon_feather-phone-call" data-name="Icon feather-phone-call" d="M12.216,4.3A3.5,3.5,0,0,1,14.978,7.06M12.216,1.5a6.294,6.294,0,0,1,5.56,5.553m-.7,5.581v2.1a1.4,1.4,0,0,1-1.525,1.4,13.84,13.84,0,0,1-6.035-2.147,13.637,13.637,0,0,1-4.2-4.2A13.84,13.84,0,0,1,3.173,3.724,1.4,1.4,0,0,1,4.565,2.2h2.1a1.4,1.4,0,0,1,1.4,1.2,8.979,8.979,0,0,0,.49,1.965,1.4,1.4,0,0,1-.315,1.476l-.888.888a11.189,11.189,0,0,0,4.2,4.2l.888-.888a1.4,1.4,0,0,1,1.476-.315,8.979,8.979,0,0,0,1.965.49A1.4,1.4,0,0,1,17.076,12.633Z" transform="translate(4.528 6.182)" fill="none" stroke="black" stroke-linecap="round" stroke-linejoin="round" stroke-width="1"/>
</svg>
