<svg id="chevron_right_circle" xmlns="http://www.w3.org/2000/svg" width="30" height="30" viewBox="0 0 30 30">
  <path id="circle" data-name="circle" d="M15,0A15,15,0,1,0,30,15,15,15,0,0,0,15,0Zm0,28.125A13.14,13.14,0,1,1,28.125,15,13.139,13.139,0,0,1,15,28.125Z" fill="black"/>
  <path id="chevron" data-name="chevron" d="M147.165,96.225a.931.931,0,0,0-1.326,0,.953.953,0,0,0,0,1.34l5.808,5.892-5.809,5.892a.953.953,0,0,0,0,1.34.931.931,0,0,0,1.326,0l6.469-6.562a.972.972,0,0,0,0-1.34Z" transform="translate(-134.22 -88.471)" fill="black"/>
</svg>
