<svg id="hand_·_ecommerce_·_shopping_·_online_·_computer" data-name="hand · ecommerce · shopping · online · computer" xmlns="http://www.w3.org/2000/svg" width="54.167" height="48.75" viewBox="0 0 54.167 48.75">
  <defs>
    <style>
      .cls-1 {
        fill: #545454;
      }
    </style>
  </defs>
  <path id="Path_188" data-name="Path 188" class="cls-1" d="M54.515,46.865l.587-.885a6.319,6.319,0,0,0,1.065-3.512V10.708A2.716,2.716,0,0,0,53.458,8H4.708A2.716,2.716,0,0,0,2,10.708v32.5a2.716,2.716,0,0,0,2.708,2.708H23.667v3.611H17.347a2.716,2.716,0,0,0-2.708,2.708v3.611a.9.9,0,0,0,.9.9H55.264a.9.9,0,0,0,.9-.9V48.625a.9.9,0,0,0-.9-.9h-.9V47.37a.924.924,0,0,1,.153-.506ZM4.708,44.111a.9.9,0,0,1-.9-.9v-32.5a.9.9,0,0,1,.9-.9h48.75a.9.9,0,0,1,.9.9v19.13a2.81,2.81,0,0,0-1.806-.009V12.514a.9.9,0,0,0-.9-.9H6.514a.9.9,0,0,0-.9.9V37.792a.9.9,0,0,0,.9.9H36.306v3.774a6.273,6.273,0,0,0,.226,1.643Zm39.84-22.669a2.717,2.717,0,0,0-2.158-.794,2.774,2.774,0,0,0-2.474,2.8v8.026h-.9a2.716,2.716,0,0,0-2.708,2.708v2.708H7.417V13.417H50.75V28.042a2.772,2.772,0,0,0-2.23.172,2.477,2.477,0,0,0-.361-.451,2.768,2.768,0,0,0-2.826-.65V23.347a2.667,2.667,0,0,0-.785-1.9ZM32.694,45.917v3.611H25.472V45.917Zm3.611,9.028H16.444V52.236a.9.9,0,0,1,.9-.9H36.306Zm0-6.319v.9H34.5V45.917h2.753a.212.212,0,0,0,.072-.018c.018.027.027.054.045.081l.587.885a.924.924,0,0,1,.153.506v.352h-.9A.9.9,0,0,0,36.306,48.625Zm18.056,6.319H38.111V49.528h16.25ZM53.6,44.978l-.6.885a2.708,2.708,0,0,0-.451,1.508v.352H39.917V47.37a2.708,2.708,0,0,0-.451-1.508l-.6-.885a4.528,4.528,0,0,1-.758-2.51V34.181a.9.9,0,0,1,.9-.9h.9v4.514a.9.9,0,1,0,1.806,0V23.447a.986.986,0,0,1,.822-1,.878.878,0,0,1,.722.28.838.838,0,0,1,.262.623V34.181a.9.9,0,0,0,1.806,0V29.667a.9.9,0,0,1,.9-.9.857.857,0,0,1,.641.28.838.838,0,0,1,.262.623v4.514a.9.9,0,0,0,1.806,0V30.569a.9.9,0,0,1,.9-.9.857.857,0,0,1,.641.28.838.838,0,0,1,.262.623v3.611a.9.9,0,1,0,1.806,0V32.375a.9.9,0,0,1,.9-.9.857.857,0,0,1,.641.28.838.838,0,0,1,.262.623V42.468a4.528,4.528,0,0,1-.758,2.51Z" transform="translate(-2 -8)"/>
  <path id="Path_189" data-name="Path 189" class="cls-1" d="M32.708,44H30.9a.9.9,0,1,0,0,1.806h1.806a.9.9,0,1,0,0-1.806Z" transform="translate(-4.722 -11.5)"/>
  <path id="Path_190" data-name="Path 190" class="cls-1" d="M21.931,18H12.9a.9.9,0,0,0-.9.9v5.417a.9.9,0,0,0,.9.9h9.028a.9.9,0,0,0,.9-.9V18.9A.9.9,0,0,0,21.931,18Zm-.9,5.417H13.806V19.806h7.222Z" transform="translate(-2.972 -8.972)"/>
  <path id="Path_191" data-name="Path 191" class="cls-1" d="M21.931,28H12.9a.9.9,0,0,0-.9.9v5.417a.9.9,0,0,0,.9.9h9.028a.9.9,0,0,0,.9-.9V28.9A.9.9,0,0,0,21.931,28Zm-.9,5.417H13.806V29.806h7.222Z" transform="translate(-2.972 -9.944)"/>
  <path id="Path_192" data-name="Path 192" class="cls-1" d="M35.931,18H26.9a.9.9,0,0,0-.9.9v5.417a.9.9,0,0,0,.9.9h9.028a.9.9,0,0,0,.9-.9V18.9A.9.9,0,0,0,35.931,18Zm-.9,5.417H27.806V19.806h7.222Z" transform="translate(-4.333 -8.972)"/>
  <path id="Path_193" data-name="Path 193" class="cls-1" d="M35.931,28H26.9a.9.9,0,0,0-.9.9v5.417a.9.9,0,0,0,.9.9h9.028a.9.9,0,0,0,.9-.9V28.9A.9.9,0,0,0,35.931,28Zm-.9,5.417H27.806V29.806h7.222Z" transform="translate(-4.333 -9.944)"/>
  <path id="Path_194" data-name="Path 194" class="cls-1" d="M49.931,18H40.9a.9.9,0,0,0-.9.9v5.417a.9.9,0,0,0,.9.9h.9a.9.9,0,1,0,0-1.806V19.806h7.222v2.708a.9.9,0,1,0,1.806,0V18.9A.9.9,0,0,0,49.931,18Z" transform="translate(-5.694 -8.972)"/>
  <path id="Path_195" data-name="Path 195" class="cls-1" d="M40.9,28a.9.9,0,0,0-.9.9v2.708a.9.9,0,1,0,1.806,0V28.9A.9.9,0,0,0,40.9,28Z" transform="translate(-5.694 -9.944)"/>
</svg>
