<svg id="menu" xmlns="http://www.w3.org/2000/svg" width="30.861" height="48.727" viewBox="0 0 30.861 48.727">
  <defs>
    <style>
      .cls-1 {
        fill: #545454;
      }
    </style>
  </defs>
  <g id="Group_4" data-name="Group 4" transform="translate(0 0)">
    <g id="Group_3" data-name="Group 3">
      <path id="Path_176" data-name="Path 176" class="cls-1" d="M122.285,5.683V2.552a2.641,2.641,0,0,0-.97-2.072,2.187,2.187,0,0,0-1.875-.42L96.129,5.7A2.432,2.432,0,0,0,93.86,8.12V46.29A2.439,2.439,0,0,0,96.3,48.727h25.989a2.439,2.439,0,0,0,2.436-2.436V8.12A2.439,2.439,0,0,0,122.285,5.683Zm-2.463-4.045a.561.561,0,0,1,.489.118,1.007,1.007,0,0,1,.351.8V5.683H103.106ZM123.1,46.29a.813.813,0,0,1-.812.812H96.3a.813.813,0,0,1-.812-.812V8.12a.813.813,0,0,1,.812-.812h25.989a.813.813,0,0,1,.812.812Z" transform="translate(-93.86 0.001)"/>
      <path id="Path_177" data-name="Path 177" class="cls-1" d="M275.5,125.024a2.439,2.439,0,0,0,2.436-2.436v-9.746a1.626,1.626,0,0,0,1.624-1.624v-4.873c0-3.55-1.826-6.015-4.767-6.433l-.8-.114a.812.812,0,0,0-.926.8v21.985A2.439,2.439,0,0,0,275.5,125.024Zm-.812-23.484c2.929.5,3.249,3.516,3.249,4.8v4.873h-.812a.812.812,0,0,0-.812.812v10.558a.812.812,0,0,1-1.624,0V101.539Z" transform="translate(-256.004 -90.293)"/>
      <path id="Path_178" data-name="Path 178" class="cls-1" d="M172.288,110.512v12.62a2.436,2.436,0,1,0,4.873,0v-12.62a3.233,3.233,0,0,0,1.624-2.811v-6.5a.812.812,0,1,0-1.624,0v4.061a.812.812,0,0,1-1.624,0V101.2a.812.812,0,1,0-1.624,0v4.061a.812.812,0,0,1-1.624,0V101.2a.812.812,0,1,0-1.624,0v6.5A3.232,3.232,0,0,0,172.288,110.512Zm0-2.961a2.36,2.36,0,0,0,2.436-.484,2.36,2.36,0,0,0,2.436.484v.15a1.6,1.6,0,0,1-1.075,1.522.812.812,0,0,0-.55.769v13.141a.812.812,0,1,1-1.624,0V109.991a.812.812,0,0,0-.55-.769,1.6,1.6,0,0,1-1.075-1.522Z" transform="translate(-163.354 -90.837)"/>
      <path id="Path_179" data-name="Path 179" class="cls-1" d="M162.939,417.749h11.37a.812.812,0,0,0,0-1.624h-11.37a.812.812,0,0,0,0,1.624Z" transform="translate(-155.63 -376.521)"/>
      <path id="Path_180" data-name="Path 180" class="cls-1" d="M318.163,416.125h-1.624a.812.812,0,0,0,0,1.624h1.624a.812.812,0,0,0,0-1.624Z" transform="translate(-294.611 -376.521)"/>
      <path id="Path_181" data-name="Path 181" class="cls-1" d="M271.836,450.258h-6.5a.812.812,0,0,0,0,1.624h6.5a.812.812,0,0,0,0-1.624Z" transform="translate(-248.284 -407.406)"/>
      <path id="Path_182" data-name="Path 182" class="cls-1" d="M223.485,450.258h-.812a.812.812,0,0,0,0,1.624h.812a.812.812,0,0,0,0-1.624Z" transform="translate(-209.679 -407.406)"/>
      <path id="Path_183" data-name="Path 183" class="cls-1" d="M165.376,450.258h-2.436a.812.812,0,1,0,0,1.624h2.436a.812.812,0,1,0,0-1.624Z" transform="translate(-155.63 -407.406)"/>
    </g>
  </g>
</svg>
