<svg xmlns="http://www.w3.org/2000/svg" width="28.044" height="15.424" viewBox="0 0 28.044 15.424">
  <path id="Icon_payment-american-express" data-name="Icon payment-american-express" d="M3.973,31.774V23.526H5.324l.3-.743H6.3l.3.743H9.255v-.56l.231.56h1.375l.244-.572v.572H17.69v-1.2l.122-.012c.11,0,.122.085.122.171v1.047h3.4v-.28a6,6,0,0,0,2.7.28l.3-.743h.682l.3.743h2.763v-.706l.414.706h2.215v-4.6h-2.19v.536l-.3-.536H25.967v.536l-.28-.536H22.657a2.764,2.764,0,0,0-1.327.268v-.268H19.236v.268a1.287,1.287,0,0,0-.888-.268H10.7l-.523,1.181-.523-1.181H7.247v.536l-.268-.536H4.922L3.973,21.1V16.35H32.017V24.6h-1.46a1.653,1.653,0,0,0-.986.268V24.6H27.416a1.448,1.448,0,0,0-.95.268V24.6H22.62v.268a1.912,1.912,0,0,0-1.059-.268H19.017v.268A1.753,1.753,0,0,0,17.91,24.6H15.062L14.4,25.3,13.8,24.6H9.548v4.6h4.174l.669-.718.633.718h2.568V28.115h.255a2.815,2.815,0,0,0,1.1-.158V29.2h2.118V27.993h.1c.122,0,.146.012.146.146V29.2h6.439a1.825,1.825,0,0,0,1.071-.292V29.2H30.86a2.677,2.677,0,0,0,1.157-.207v2.783H3.973Zm8.508-8.905h-.8v-2.58l-1.144,2.58H9.84L8.7,20.288v2.58H7.089l-.3-.73H5.141l-.3.73H3.985L5.4,19.57H6.566L7.9,22.7V19.57h1.29l1.035,2.24.937-2.24h1.314v3.3ZM6.5,21.457l-.548-1.314-.536,1.314H6.5ZM16.9,27.446v1.108H15.366l-.974-1.1-1.01,1.1H10.266v-3.3H13.43l.974,1.083,1-1.083h2.519c.743,0,1.327.256,1.327,1.083,0,1.326-1.449,1.107-2.349,1.107ZM13.881,26.9l-.852-.962H11.045v.6h1.728V27.2H11.045v.657H12.98l.9-.962Zm1.826-4.029H13.065v-3.3h2.641v.694h-1.85v.6h1.8v.669h-1.8v.657h1.85Zm.4,5.38V25.608L14.9,26.91Zm2.751-6.9c.45.158.524.438.524.876v.645h-.791c-.012-.706.17-1.193-.706-1.193h-.852v1.193h-.779v-3.3l1.862.012c.633,0,1.3.1,1.3.876a.95.95,0,0,1-.56.888Zm-.937,4.589H16.9v.84h1.01c.28,0,.5-.134.5-.438s-.219-.4-.487-.4Zm.11-5.672h-1v.731h.986c.268,0,.524-.061.524-.377S18.275,20.264,18.031,20.264Zm4.2,6.756c.438.158.524.45.524.876v.657h-.791v-.548c0-.56-.183-.657-.706-.657h-.84v1.205h-.791v-3.3H21.5c.621,0,1.29.11,1.29.889a.926.926,0,0,1-.56.876Zm-1.558-4.151h-.8v-3.3h.8v3.3Zm.743,3.067h-1v.743H21.4c.268,0,.523-.061.523-.39,0-.3-.267-.353-.511-.353Zm8.593-3.067h-1.12L27.4,20.4v2.471H25.8l-.316-.73H23.849l-.3.73h-.913c-1.083,0-1.571-.56-1.571-1.619,0-1.107.5-1.68,1.619-1.68h.767v.718c-.828-.012-1.582-.195-1.582.937,0,.56.134.95.767.95h.353l1.12-2.593h1.181L26.613,22.7V19.583h1.2l1.388,2.288V19.583h.8v3.286Zm-4.151,5.684H23.229v-3.3h2.629v.682H24.02v.6h1.8V27.2h-1.8v.657l1.838.012v.681Zm-.645-7.1-.536-1.314-.548,1.314Zm2.654,7.1H26.333v-.706h1.534c.195,0,.414-.049.414-.3,0-.706-2.033.268-2.033-1.3a.99.99,0,0,1,1.12-.986H28.95v.694H27.5c-.207,0-.438.037-.438.3,0,.718,2.045-.329,2.045,1.254,0,.779-.536,1.047-1.241,1.047Zm4.151-.426a1.251,1.251,0,0,1-1.071.426H29.424v-.706h1.521c.195,0,.4-.061.4-.3,0-.694-2.033.268-2.033-1.3a1,1,0,0,1,1.132-.986h1.57v.694H30.581c-.219,0-.438.037-.438.3,0,.584,1.376-.012,1.874.645v1.229Z" transform="translate(-3.973 -16.35)" fill="#04ACC4"/>
</svg>
