<svg xmlns="http://www.w3.org/2000/svg" width="25.707" height="15.424" viewBox="0 0 25.707 15.424">
  <path id="Icon_payment-mastercard" data-name="Icon payment-mastercard" d="M23.136,16.35a7.682,7.682,0,0,0-5.142,1.965,7.712,7.712,0,1,0,0,11.494A7.712,7.712,0,1,0,23.136,16.35ZM8.323,25.907l.445-2.8-1.018,2.8H7.178v-2.8l-.509,2.8H5.905l.636-3.691H7.687v2.291l.827-2.291H9.724l-.636,3.691H8.323Zm3.563-.764a4.176,4.176,0,0,1-.127.573v.191h-.636v-.318a.921.921,0,0,1-.827.382.685.685,0,0,1-.509-.191,1.029,1.029,0,0,1-.191-.636,1,1,0,0,1,.318-.827A1.811,1.811,0,0,1,11,24h.318v-.191c0-.169-.17-.255-.509-.255a3.571,3.571,0,0,0-.827.127c.041-.169.085-.382.127-.636A2.589,2.589,0,0,1,11,22.853q1.081,0,1.082.891a3.028,3.028,0,0,1-.064.573q-.06.414-.127.827Zm2.291-1.527a1.958,1.958,0,0,0-.573-.064c-.254,0-.382.085-.382.255a.257.257,0,0,0,.064.191l.255.127a.941.941,0,0,1,.573.827q0,1.018-1.209,1.018a3.773,3.773,0,0,1-.827-.064c.041-.169.085-.4.127-.7a3.459,3.459,0,0,0,.7.127c.3,0,.445-.085.445-.255a.265.265,0,0,0-.064-.191.811.811,0,0,0-.318-.191.856.856,0,0,1-.573-.827q0-1.017,1.145-1.018a2.948,2.948,0,0,1,.764.064l-.128.7Zm1.654.064h-.445a2.41,2.41,0,0,1-.064.573,1.983,1.983,0,0,1-.032.255.5.5,0,0,1-.1.255v.255a.225.225,0,0,0,.255.255.567.567,0,0,0,.255-.064l-.127.7A1.924,1.924,0,0,1,15,25.97a.562.562,0,0,1-.636-.636,2.99,2.99,0,0,1,.127-.827l.318-2.036h.764l-.064.445H15.9l-.064.764ZM18.313,24.7H16.722a.613.613,0,0,0,.127.445.777.777,0,0,0,.573.191,1.683,1.683,0,0,0,.827-.255l-.127.764a2.251,2.251,0,0,1-.827.127,1.181,1.181,0,0,1-1.336-1.336,1.9,1.9,0,0,1,.382-1.273,1.152,1.152,0,0,1,.954-.509,1.122,1.122,0,0,1,.827.318,1.042,1.042,0,0,1,.255.764,4.012,4.012,0,0,1-.064.764Zm1.273-.573a12.485,12.485,0,0,0-.318,1.782H18.44l.064-.191q.253-1.781.382-2.8h.764l-.064.445a.815.815,0,0,1,.382-.382.277.277,0,0,1,.382-.064,4.747,4.747,0,0,0-.318.891c-.17-.042-.319.064-.446.318Zm2.863,1.718a1.583,1.583,0,0,1-.7.127,1.273,1.273,0,0,1-1.018-.445,1.556,1.556,0,0,1-.382-1.145,2.461,2.461,0,0,1,.509-1.591,1.46,1.46,0,0,1,1.273-.636,3.05,3.05,0,0,1,.891.191l-.127.764a1.587,1.587,0,0,0-.7-.191.854.854,0,0,0-.764.382,1.631,1.631,0,0,0-.255,1.018.878.878,0,0,0,.191.636.6.6,0,0,0,.509.255,1.583,1.583,0,0,0,.7-.191l-.127.828ZM25.281,24a1.892,1.892,0,0,0-.032.318c-.043.213-.086.5-.127.859a4.443,4.443,0,0,1-.127.732h-.636v-.318a.921.921,0,0,1-.827.382.685.685,0,0,1-.509-.191,1.029,1.029,0,0,1-.191-.636,1,1,0,0,1,.318-.827A1.706,1.706,0,0,1,24.167,24h.318a.261.261,0,0,0,.064-.191c0-.169-.17-.255-.509-.255a3.571,3.571,0,0,0-.827.127,2.061,2.061,0,0,1,.127-.636,2.589,2.589,0,0,1,.891-.191q1.081,0,1.082.891a1.846,1.846,0,0,1-.031.255Zm1.241.127a12.856,12.856,0,0,0-.318,1.782h-.827l.064-.191q.252-1.391.382-2.8h.764a1.441,1.441,0,0,1-.064.445.813.813,0,0,1,.382-.382.455.455,0,0,1,.382-.064,1.7,1.7,0,0,0-.318.891c-.17-.042-.318.064-.446.318Zm2.163,1.782.064-.255a.847.847,0,0,1-.7.318.745.745,0,0,1-.7-.318,1.517,1.517,0,0,1-.318-.891,1.958,1.958,0,0,1,.445-1.336,1,1,0,0,1,.891-.509,1.1,1.1,0,0,1,.764.382l.127-1.082h.827l-.636,3.691h-.764Zm-18.326-.891c0,.213.085.318.255.318A.431.431,0,0,0,11,25.143a.778.778,0,0,0,.191-.573H11c-.424,0-.636.149-.636.445Zm7.19-1.4a.18.18,0,0,1-.127-.064H17.3q-.382,0-.509.509h.891v-.191l-.064-.127a.192.192,0,0,0-.064-.127Zm6.045,1.4c0,.213.085.318.255.318a.431.431,0,0,0,.382-.191.777.777,0,0,0,.191-.573h-.191c-.424,0-.636.149-.636.445Zm4.9-1.4a.537.537,0,0,0-.445.318,1.349,1.349,0,0,0-.127.7q0,.573.382.573a.551.551,0,0,0,.445-.255,1.262,1.262,0,0,0,.191-.764c0-.382-.15-.573-.446-.573Z" transform="translate(-5.141 -16.35)" fill="#04ACC4"/>
</svg>
