<svg xmlns="http://www.w3.org/2000/svg" width="35.999" height="13.501" viewBox="0 0 35.999 13.501">
  <path id="Icon_simple-googlepay" data-name="Icon simple-googlepay" d="M36,15,31.3,25.5H29.847l1.744-3.675L28.5,15h1.53l2.235,5.235h.03L34.467,15ZM16.475,18.249V22.5H15V12h3.91a3.72,3.72,0,0,1,2.531.909,2.861,2.861,0,0,1,0,4.445,3.707,3.707,0,0,1-2.531.894H16.474Zm0-4.956v3.666h2.472a2.053,2.053,0,0,0,1.459-.543,1.686,1.686,0,0,0,0-2.567,2.015,2.015,0,0,0-1.459-.557ZM25.458,15a3.085,3.085,0,0,1,2.228.783,2.841,2.841,0,0,1,.815,2.148v4.34H27.284v-.978h-.056a2.407,2.407,0,0,1-2.1,1.208,2.673,2.673,0,0,1-1.875-.69,2.24,2.24,0,0,1-.753-1.725,2.123,2.123,0,0,1,.795-1.737,3.273,3.273,0,0,1,2.122-.646,3.641,3.641,0,0,1,1.865.431v-.3a1.53,1.53,0,0,0-.525-1.17,1.762,1.762,0,0,0-1.227-.483,1.926,1.926,0,0,0-1.686.934l-1.121-.732A3.077,3.077,0,0,1,25.458,15Zm-1.646,5.115a1.069,1.069,0,0,0,.423.862,1.52,1.52,0,0,0,.989.345,2,2,0,0,0,1.43-.618,1.965,1.965,0,0,0,.633-1.451,2.522,2.522,0,0,0-1.659-.493,2.09,2.09,0,0,0-1.293.39,1.166,1.166,0,0,0-.522.965ZM6.122,12a5.949,5.949,0,0,1,4.1,1.563L8.47,15.276a3.36,3.36,0,0,0-2.349-.9,3.654,3.654,0,0,0-3.437,2.475,3.527,3.527,0,0,0,0,2.3,3.654,3.654,0,0,0,3.437,2.475,3.738,3.738,0,0,0,2.085-.572,2.782,2.782,0,0,0,1.221-1.826H6.122v-2.31H11.9a7.071,7.071,0,0,1,.1,1.219,5.812,5.812,0,0,1-1.821,4.414A5.924,5.924,0,0,1,6.122,24,6.135,6.135,0,0,1,.652,20.694a5.893,5.893,0,0,1,0-5.388A6.135,6.135,0,0,1,6.12,12Z" transform="translate(-0.001 -11.999)" fill="#04ACC4"/>
</svg>
