<svg xmlns="http://www.w3.org/2000/svg" width="30.849" height="14.442" viewBox="0 0 30.849 14.442">
  <path id="Icon_payment-apple-pay" data-name="Icon payment-apple-pay" d="M10.474,22.822a2.5,2.5,0,0,0,1.56,2.278,6.076,6.076,0,0,1-.8,1.6c-.484.686-.987,1.369-1.779,1.383s-1.028-.447-1.918-.447-1.168.433-1.9.461c-.764.028-1.347-.742-1.835-1.425-1-1.4-1.761-3.95-.737-5.672a2.859,2.859,0,0,1,2.4-1.411c.751-.014,1.459.489,1.918.489s1.32-.6,2.225-.516A2.746,2.746,0,0,1,11.73,20.68a2.542,2.542,0,0,0-1.256,2.142ZM9.012,18.639a2.43,2.43,0,0,0,.6-1.8,2.635,2.635,0,0,0-1.712.853,2.312,2.312,0,0,0-.617,1.741,2.184,2.184,0,0,0,1.724-.8Zm5.874-.815q.451-.076,1-.137a10.834,10.834,0,0,1,1.2-.061,5.229,5.229,0,0,1,1.61.22,2.905,2.905,0,0,1,1.112.63,2.591,2.591,0,0,1,.583.866,2.972,2.972,0,0,1,.21,1.155,3.132,3.132,0,0,1-.287,1.382,2.877,2.877,0,0,1-.785.995,3.319,3.319,0,0,1-1.182.6,5.367,5.367,0,0,1-1.493.2,6.006,6.006,0,0,1-1.228-.106v4.375h-.731V17.824Zm.732,5.1a3.249,3.249,0,0,0,.591.106q.326.03.7.03a3.309,3.309,0,0,0,2.169-.638,2.287,2.287,0,0,0,.77-1.868,2.455,2.455,0,0,0-.2-1.033,1.858,1.858,0,0,0-.575-.722,2.652,2.652,0,0,0-.886-.425,4.183,4.183,0,0,0-1.135-.145,8.256,8.256,0,0,0-.855.038q-.358.038-.575.084v4.573Zm10.789,3.281q0,.441.015.881a5.623,5.623,0,0,0,.093.851h-.684l-.109-1.033h-.031a2.6,2.6,0,0,1-.358.425,2.788,2.788,0,0,1-.505.387,2.7,2.7,0,0,1-.653.281,2.865,2.865,0,0,1-.8.106,2.442,2.442,0,0,1-.957-.174,1.963,1.963,0,0,1-.676-.456,1.856,1.856,0,0,1-.4-.645,2.127,2.127,0,0,1-.132-.729,2.22,2.22,0,0,1,1.112-1.99,6.237,6.237,0,0,1,3.352-.668v-.2a4.593,4.593,0,0,0-.055-.661,2.051,2.051,0,0,0-.241-.706,1.542,1.542,0,0,0-.56-.562,1.932,1.932,0,0,0-1.011-.228,3.359,3.359,0,0,0-1.819.547l-.233-.532a3.486,3.486,0,0,1,1.027-.478,4.168,4.168,0,0,1,1.1-.145,2.711,2.711,0,0,1,1.268.258,2.09,2.09,0,0,1,.77.668,2.462,2.462,0,0,1,.381.919,5.172,5.172,0,0,1,.1,1.01v2.871Zm-.731-2.172a10.366,10.366,0,0,0-1.237.045,4.575,4.575,0,0,0-1.19.266,2.279,2.279,0,0,0-.9.6A1.5,1.5,0,0,0,21.99,26a1.379,1.379,0,0,0,.451,1.139,1.568,1.568,0,0,0,1.011.365,2.5,2.5,0,0,0,.808-.122,2.123,2.123,0,0,0,.622-.327,2.089,2.089,0,0,0,.443-.463,2.168,2.168,0,0,0,.272-.532,2.033,2.033,0,0,0,.078-.441v-1.58Zm2.161-3.388,1.9,4.74q.155.4.3.813t.249.767h.031q.109-.334.249-.752t.311-.859l1.773-4.709h.777L31.258,26q-.327.851-.615,1.542t-.583,1.246a8.9,8.9,0,0,1-.6.98,4.105,4.105,0,0,1-.677.744,3.689,3.689,0,0,1-.8.555q-.366.175-.49.22l-.249-.592a6.188,6.188,0,0,0,.622-.319,3.377,3.377,0,0,0,.669-.516,6.21,6.21,0,0,0,.614-.722,5.034,5.034,0,0,0,.6-1.086,1.2,1.2,0,0,0,.094-.319.9.9,0,0,0-.094-.319l-2.691-6.76h.778Z" transform="translate(-2.571 -16.841)" fill="#04ACC4"/>
</svg>
