<svg id="qr-code" xmlns="http://www.w3.org/2000/svg" width="48.805" height="48.805" viewBox="0 0 48.805 48.805">
  <defs>
    <style>
      .cls-1 {
        fill: #545454;
      }
    </style>
  </defs>
  <path id="Path_196" data-name="Path 196" class="cls-1" d="M378.26,0H371.43a1.43,1.43,0,1,0,0,2.86h6.831a2.418,2.418,0,0,1,2.416,2.415v6.831a1.43,1.43,0,1,0,2.86,0V5.275A5.281,5.281,0,0,0,378.26,0Z" transform="translate(-334.731 0)"/>
  <path id="Path_197" data-name="Path 197" class="cls-1" d="M1.43,13.536a1.43,1.43,0,0,0,1.43-1.43V5.275A2.418,2.418,0,0,1,5.275,2.86h6.831a1.43,1.43,0,1,0,0-2.86H5.275A5.281,5.281,0,0,0,0,5.275v6.831a1.43,1.43,0,0,0,1.43,1.43Z" transform="translate(0 0)"/>
  <path id="Path_198" data-name="Path 198" class="cls-1" d="M12.106,380.676H5.275a2.418,2.418,0,0,1-2.416-2.415V371.43a1.43,1.43,0,1,0-2.86,0v6.831a5.281,5.281,0,0,0,5.275,5.275h6.831a1.43,1.43,0,1,0,0-2.86Z" transform="translate(0 -334.731)"/>
  <path id="Path_199" data-name="Path 199" class="cls-1" d="M382.106,370a1.43,1.43,0,0,0-1.43,1.43v6.831a2.418,2.418,0,0,1-2.416,2.415H371.43a1.43,1.43,0,1,0,0,2.86h6.831a5.281,5.281,0,0,0,5.275-5.275V371.43A1.43,1.43,0,0,0,382.106,370Z" transform="translate(-334.731 -334.731)"/>
  <path id="Path_200" data-name="Path 200" class="cls-1" d="M275.111,273.681V258.43a1.43,1.43,0,0,0-1.43-1.43H258.43a1.43,1.43,0,0,0-1.43,1.43v15.251a1.43,1.43,0,0,0,1.43,1.43h15.251A1.43,1.43,0,0,0,275.111,273.681Zm-2.86-1.43H259.86V259.86h12.392Z" transform="translate(-232.502 -232.502)"/>
  <path id="Path_201" data-name="Path 201" class="cls-1" d="M298.43,94.536h10.676a1.43,1.43,0,0,0,1.43-1.43V82.43a1.43,1.43,0,0,0-1.43-1.43H298.43A1.43,1.43,0,0,0,297,82.43V93.106A1.43,1.43,0,0,0,298.43,94.536Zm1.43-10.676h7.816v7.816H299.86Z" transform="translate(-268.69 -73.279)"/>
  <path id="Path_202" data-name="Path 202" class="cls-1" d="M80.156,65H66.43A1.43,1.43,0,0,0,65,66.43V80.156a1.43,1.43,0,0,0,1.43,1.43H80.156a1.43,1.43,0,0,0,1.43-1.43V66.43A1.43,1.43,0,0,0,80.156,65Zm-1.43,13.726H67.86V67.86H78.726Z" transform="translate(-58.804 -58.804)"/>
  <path id="Path_203" data-name="Path 203" class="cls-1" d="M78.631,286.726H67.86v-12.3a1.43,1.43,0,0,0-2.86,0v13.726a1.43,1.43,0,0,0,1.43,1.43h12.2a1.43,1.43,0,1,0,0-2.86Z" transform="translate(-58.804 -246.977)"/>
  <path id="Path_204" data-name="Path 204" class="cls-1" d="M131.86,282.056V274.43a1.43,1.43,0,0,0-2.86,0v7.626a1.43,1.43,0,1,0,2.86,0Z" transform="translate(-116.704 -246.977)"/>
  <path id="Path_205" data-name="Path 205" class="cls-1" d="M194.43,273a1.43,1.43,0,0,0-1.43,1.43v7.626a1.43,1.43,0,1,0,2.86,0V274.43A1.43,1.43,0,0,0,194.43,273Z" transform="translate(-174.603 -246.977)"/>
  <path id="Path_206" data-name="Path 206" class="cls-1" d="M322.43,339.86h3.05a1.43,1.43,0,0,0,0-2.86h-3.05a1.43,1.43,0,0,0,0,2.86Z" transform="translate(-290.402 -304.877)"/>
  <path id="Path_207" data-name="Path 207" class="cls-1" d="M138.43,133.385a1.43,1.43,0,0,0,1.43-1.43V130.43a1.43,1.43,0,0,0-2.86,0v1.525A1.43,1.43,0,0,0,138.43,133.385Z" transform="translate(-123.941 -116.704)"/>
</svg>
