<svg xmlns="http://www.w3.org/2000/svg" width="48.771" height="48.777" viewBox="0 0 48.771 48.777">
  <defs>
    <style>
      .cls-1 {
        fill: #545454;
      }
    </style>
  </defs>
  <path id="Path_208" data-name="Path 208" class="cls-1" d="M53.624,19.743H52.6a7.08,7.08,0,1,0-10.543,0H32.385V11.877a.787.787,0,0,0-.787-.787H28.452a.787.787,0,0,0-.787.787v7.866h-.787V8.731a.787.787,0,0,0-.787-.787H22.946a.787.787,0,0,0-.787.787V19.743h-.787V14.237a.787.787,0,0,0-.787-.787H17.44a.787.787,0,0,0-.787.787v5.506H11.147A3.15,3.15,0,0,0,8,22.89v23.6a3.15,3.15,0,0,0,3.147,3.147H27.361l-1.049,3.147H23.733a.787.787,0,0,0-.787.787v1.573H15.08a.787.787,0,1,0,0,1.573H49.691a.787.787,0,1,0,0-1.573H41.825V53.568a.787.787,0,0,0-.787-.787H38.459L37.41,49.635H53.624a3.15,3.15,0,0,0,3.147-3.147V22.89A3.15,3.15,0,0,0,53.624,19.743ZM48.118,9.574a5.517,5.517,0,0,1,4.663,4.663H48.118Zm-.461,6.236h5.124a5.5,5.5,0,0,1-8.745,3.621Zm-5.832-.787a5.515,5.515,0,0,1,4.72-5.449V14.7L42.923,18.32a5.478,5.478,0,0,1-1.1-3.3Zm-12.586-2.36h1.573V27.61H29.239Zm-2.36,8.653h.787V27.61h-.787Zm-3.147-11.8h1.573V27.61H23.733Zm-2.36,11.8h.787V27.61h-.787Zm-3.147-6.293H19.8V27.61H18.226ZM40.252,54.355v.787H24.519v-.787ZM27.97,52.782l1.049-3.147h6.732L36.8,52.782ZM55.2,46.489a1.575,1.575,0,0,1-1.573,1.573H11.147a1.575,1.575,0,0,1-1.573-1.573V44.915H55.2Zm0-3.147H9.573V22.89a1.575,1.575,0,0,1,1.573-1.573h5.506V27.61h-.787V22.89a.787.787,0,0,0-.787-.787H11.933a.787.787,0,0,0-.787.787V28.4a.787.787,0,0,0,.787.787H37.105a.787.787,0,0,0,.787-.787V22.89a.787.787,0,0,0-.787-.787H33.959a.787.787,0,0,0-.787.787v4.72h-.787V21.317H44.094a7.053,7.053,0,0,0,6.474,0h3.056A1.575,1.575,0,0,1,55.2,22.89Zm-40.9-19.666V27.61H12.72V23.677ZM34.745,27.61V23.677h1.573V27.61Z" transform="translate(-8 -7.938)"/>
</svg>
