<svg id="round-table" xmlns="http://www.w3.org/2000/svg" width="48.536" height="48.533" viewBox="0 0 48.536 48.533">
  <defs>
    <style>
      .cls-1 {
        fill: #545454;
      }
    </style>
  </defs>
  <path id="Path_184" data-name="Path 184" class="cls-1" d="M48.925,246.506a7.135,7.135,0,0,0-.784-9.16l-3.172-3.172a19.65,19.65,0,0,0,.57-7.36.711.711,0,0,0-1.413.157,18.234,18.234,0,0,1-.33,6.029l-1.018-1.018a2.764,2.764,0,1,0-3.909,3.909l2.671,2.67a18.308,18.308,0,0,1-19.572,8.275l1.019-1.019a2.764,2.764,0,0,0-3.91-3.908L16.4,244.584a18.417,18.417,0,0,1-6.148-6.221c-.007-.015-.013-.031-.022-.046-.3-.51-.576-1.032-.818-1.553a18.057,18.057,0,0,1-.9-2.32.722.722,0,0,0-.041-.1,18.254,18.254,0,0,1-.722-7,.711.711,0,1,0-1.416-.128,19.659,19.659,0,0,0,.689,7.249l-3.062,3.062a7.133,7.133,0,0,0-.815,9.116l-.071.071a2.829,2.829,0,0,0,0,4L4.4,252.03a2.832,2.832,0,0,0,4,0l.064-.064a7.087,7.087,0,0,0,4.1,1.307,7.233,7.233,0,0,0,1.315-.121.711.711,0,1,0-.258-1.4,5.691,5.691,0,0,1-4.136-.812l1.5-1.5a2.811,2.811,0,0,0,.744-1.309,2.7,2.7,0,0,0,3.442-.308l1.842-1.842,0,0,3.067-3.066a1.345,1.345,0,0,1,1.9,0,1.342,1.342,0,0,1,0,1.9l-1.9,1.9-.008.008-3.46,3.46a5.814,5.814,0,0,1-.6.523.711.711,0,1,0,.858,1.134,7.167,7.167,0,0,0,.748-.652l3.171-3.17a19.69,19.69,0,0,0,10.613-.082l3.075,3.076a7.114,7.114,0,0,0,4.758,2.084q.145.006.289.006a7.106,7.106,0,0,0,4.07-1.276l.072.072a2.833,2.833,0,0,0,4,0l1.318-1.318a2.829,2.829,0,0,0,0-4ZM3.3,242.337a5.7,5.7,0,0,1,1.669-3.809l2.558-2.557a19.574,19.574,0,0,0,1.2,2.594l-1.412,1.411a2.7,2.7,0,0,0-.335,3.4,2.813,2.813,0,0,0-1.318.744l-1.49,1.49A5.691,5.691,0,0,1,3.3,242.337Zm6.679,6.1-2.067,2.066h0l-.519.519a1.41,1.41,0,0,1-1.991,0l-1.318-1.318a1.408,1.408,0,0,1,0-1.991l.508-.508L4.6,247.2l2.073-2.073a1.409,1.409,0,0,1,1.987,0l1.259,1.259.063.063a1.408,1.408,0,0,1,0,1.991Zm4.186-1.617a1.272,1.272,0,0,1-1.8,0l-1.373-1.373-.007-.007-.614-.614-.7-.7,0,0-1.338-1.338a1.272,1.272,0,0,1,0-1.8l1.167-1.167a19.815,19.815,0,0,0,2.2,2.767l-.365.365a.711.711,0,0,0,1.006,1.005l.377-.377a19.735,19.735,0,0,0,2.664,2.04Zm25.71-13.834a1.344,1.344,0,0,1,1.9,0l5.363,5.364a5.744,5.744,0,0,1,.765,7.13l-1.5-1.5a2.816,2.816,0,0,0-1.309-.742,2.695,2.695,0,0,0-.307-3.444l-4.913-4.912A1.344,1.344,0,0,1,39.874,232.987Zm-.34,10.286.37.37a.711.711,0,1,0,1.005-1.006l-.383-.383a19.789,19.789,0,0,0,2.042-2.663l1.212,1.212a1.273,1.273,0,0,1,0,1.8L42.4,243.98l0,0L41.083,245.3l0,0-1.339,1.339a1.276,1.276,0,0,1-1.8,0l-1.175-1.175A19.7,19.7,0,0,0,39.534,243.273Zm-.239,8.4A5.7,5.7,0,0,1,35.485,250l-2.565-2.565c.476-.179.946-.377,1.406-.592.4-.186.8-.39,1.191-.607l1.416,1.416a2.7,2.7,0,0,0,3.4.335,2.814,2.814,0,0,0,.746,1.318l1.489,1.489A5.7,5.7,0,0,1,39.295,251.669Zm8.689-2.1-1.319,1.318a1.409,1.409,0,0,1-1.991,0L42.088,248.3a1.407,1.407,0,0,1,0-1.989l1.322-1.322a1.409,1.409,0,0,1,1.989,0l2.079,2.079h0l.507.507a1.408,1.408,0,0,1,0,1.991Zm0,0" transform="translate(-1.695 -204.74)"/>
  <path id="Path_185" data-name="Path 185" class="cls-1" d="M7.455,21.285a2.764,2.764,0,1,0,3.909-3.909L8.68,14.693a18.328,18.328,0,0,1,2.45-3.149.767.767,0,0,0,.059-.052.712.712,0,0,0,.064-.074l.084-.085a18.351,18.351,0,0,1,3.515-2.749.719.719,0,0,0,.106-.051c.506-.3,1.027-.574,1.55-.818a18.193,18.193,0,0,1,2.321-.9.7.7,0,0,0,.118-.05,18.265,18.265,0,0,1,9.333-.342L27.25,7.453a2.763,2.763,0,1,0,3.908,3.908l2.68-2.679a18.425,18.425,0,0,1,6.277,6.463,26.668,26.668,0,0,1,1.586,3.6.7.7,0,0,0,.048.153v0c.143.472.426.422.649.422h0a.71.71,0,0,0,.5-.208l3.371-3.37a7.134,7.134,0,0,0,.814-9.116l.071-.071a2.83,2.83,0,0,0,0-4L45.84,1.241a2.833,2.833,0,0,0-4,0l-.064.064a7.138,7.138,0,0,0-9.162.785L29.454,5.249a19.685,19.685,0,0,0-10.644.073l-3.059-3.06a7.135,7.135,0,0,0-9.117-.814l-.071-.071a2.834,2.834,0,0,0-4,0L1.243,2.7a2.829,2.829,0,0,0,0,4l.064.064a7.135,7.135,0,0,0,.784,9.16ZM39.222,7.8l.029.03,2.661,2.66a1.273,1.273,0,0,1,0,1.8l-1.169,1.169a19.823,19.823,0,0,0-2.2-2.769l.365-.365a.711.711,0,0,0-1.005-1.005l-.376.376a19.723,19.723,0,0,0-2.662-2.043l1.2-1.2a1.275,1.275,0,0,1,1.8,0Zm7.714,3.135a5.693,5.693,0,0,1-1.669,3.809l-2.577,2.575a25.479,25.479,0,0,0-1.192-2.6L42.918,13.3a2.7,2.7,0,0,0,.336-3.4,2.812,2.812,0,0,0,1.318-.744l1.49-1.49A5.69,5.69,0,0,1,46.937,10.934Zm-3.1-9.1a1.4,1.4,0,0,1,1,.412l1.319,1.318a1.408,1.408,0,0,1,0,1.991l-.517.517,0,0L43.567,8.142a1.409,1.409,0,0,1-1.991,0L40.258,6.823a1.409,1.409,0,0,1,0-1.991l2.587-2.586A1.4,1.4,0,0,1,43.839,1.834ZM33.619,3.094a5.745,5.745,0,0,1,7.131-.765l-1.5,1.5a2.811,2.811,0,0,0-.742,1.31,2.7,2.7,0,0,0-3.444.307l-4.912,4.912a1.344,1.344,0,0,1-1.9,0,1.341,1.341,0,0,1,0-1.9ZM6.451,12.463a1.273,1.273,0,0,1,0-1.8l4.041-4.041a1.275,1.275,0,0,1,1.8,0l1.161,1.161a19.828,19.828,0,0,0-2.769,2.2l-.359-.359a.711.711,0,1,0-1.005,1.006l.37.369A19.7,19.7,0,0,0,7.65,13.662ZM10.936,1.6a5.7,5.7,0,0,1,3.81,1.669L17.3,5.822a19.658,19.658,0,0,0-2.594,1.2L13.3,5.617a2.7,2.7,0,0,0-3.4-.335,2.811,2.811,0,0,0-.747-1.319L7.659,2.474A5.693,5.693,0,0,1,10.936,1.6ZM2.248,3.7,3.566,2.382a1.41,1.41,0,0,1,1.991,0l.515.515.008.007L8.144,4.968a1.408,1.408,0,0,1,0,1.991L6.825,8.278a1.409,1.409,0,0,1-1.991,0L2.248,5.692a1.408,1.408,0,0,1,0-1.991Zm.084,4.086,1.5,1.5a2.814,2.814,0,0,0,1.309.742,2.694,2.694,0,0,0,.307,3.443l4.912,4.912a1.342,1.342,0,0,1-1.9,1.9L3.1,14.915A5.741,5.741,0,0,1,2.332,7.786Zm0,0" transform="translate(-0.001 0.001)"/>
  <path id="Path_186" data-name="Path 186" class="cls-1" d="M117.352,279.2l-3.489,3.093a1.336,1.336,0,0,0-.114,1.884l1.923,2.169.006.007.005,0,1.844,2.08a1.336,1.336,0,0,0,1.883.113l3.489-3.093a1.335,1.335,0,0,0,.114-1.884l-3.777-4.261A1.336,1.336,0,0,0,117.352,279.2Zm.878,1.122,1.371,1.546-3.337,3-1.392-1.571Zm.3,7.107-1.326-1.5,3.337-3,1.348,1.52Zm0,0" transform="translate(-102.663 -252.43)"/>
  <path id="Path_187" data-name="Path 187" class="cls-1" d="M285.753,130.07l-5.005,4.436a1.443,1.443,0,0,0-.123,2.037l3.633,4.1a1.434,1.434,0,0,0,.993.483l.089,0a1.432,1.432,0,0,0,.955-.363l5.005-4.437a1.443,1.443,0,0,0,.123-2.037l-3.633-4.1A1.445,1.445,0,0,0,285.753,130.07Zm4.612,5.179a.017.017,0,0,1-.007.014h0l-5.005,4.436a.016.016,0,0,1-.015.006.02.02,0,0,1-.015-.007l-3.633-4.1a.019.019,0,0,1-.006-.015.021.021,0,0,1,.007-.015l5.005-4.436a.021.021,0,0,1,.014-.006.02.02,0,0,1,.016.007l3.633,4.1A.018.018,0,0,1,290.364,135.249Zm0,0" transform="translate(-253.694 -117.411)"/>
</svg>
