<svg id="tick_circle" xmlns="http://www.w3.org/2000/svg" width="30" height="30" viewBox="0 0 30 30">
  <path id="circle" data-name="Path 175" d="M15,0A15,15,0,1,0,30,15,15,15,0,0,0,15,0Zm0,28.125A13.14,13.14,0,1,1,28.125,15,13.139,13.139,0,0,1,15,28.125Z" fill="black"/>
  <path id="tick" data-name="Path 176" d="M1.6.277a.931.931,0,0,0-1.326,0,.953.953,0,0,0,0,1.34l8.734,8.465L6.581,12.439a.953.953,0,0,0,0,1.34.931.931,0,0,0,1.326,0l3.088-3.026a.972.972,0,0,0,0-1.34Z" transform="translate(23.093 9.142) rotate(90)" fill="black"/>
</svg>
