<?xml version="1.0" encoding="UTF-8" standalone="no"?>
<!DOCTYPE svg PUBLIC "-//W3C//DTD SVG 1.1//EN" "http://www.w3.org/Graphics/SVG/1.1/DTD/svg11.dtd">
<svg width="100%" height="100%" viewBox="0 0 610 95" version="1.1" xmlns="http://www.w3.org/2000/svg" xmlns:xlink="http://www.w3.org/1999/xlink" xml:space="preserve" xmlns:serif="http://www.serif.com/" style="fill-rule:evenodd;clip-rule:evenodd;stroke-linejoin:round;stroke-miterlimit:2;">
    <g id="Icon_Logo_on_White">
        <path d="M475.663,18.865l0,51.597c0,2.514 -1.23,3.772 -3.691,3.772l-6.821,-0c-1.123,-0 -1.979,-0.254 -2.568,-0.763c-0.588,-0.508 -1.123,-1.27 -1.605,-2.287l-16.771,-33.382c-0.535,-1.176 -1.123,-2.474 -1.765,-3.891c-0.642,-1.418 -1.15,-2.769 -1.525,-4.053l-1.043,0c0.107,1.338 0.201,2.688 0.281,4.053c0.08,1.364 0.12,2.715 0.12,4.052l0,36.271l-9.629,-0l-0,-51.598c-0,-2.514 1.23,-3.771 3.691,-3.771l6.66,-0c1.124,-0 1.98,0.254 2.568,0.762c0.589,0.508 1.124,1.271 1.605,2.287l16.29,32.499c0.642,1.177 1.297,2.501 1.966,3.972c0.669,1.471 1.297,2.956 1.886,4.454l1.203,-0c-0.107,-1.552 -0.2,-3.063 -0.281,-4.534c-0.08,-1.471 -0.12,-2.929 -0.12,-4.373l0,-35.067l9.549,-0Z" style="fill:#292929;fill-rule:nonzero;"/>
        <path d="M508.243,17.821c4.279,0 7.89,0.469 10.833,1.405c2.942,0.936 5.309,2.501 7.101,4.694c1.792,2.193 3.09,5.136 3.892,8.827c0.803,3.691 1.204,8.292 1.204,13.802c-0,5.457 -0.401,10.044 -1.204,13.762c-0.802,3.718 -2.1,6.674 -3.892,8.867c-1.792,2.194 -4.159,3.758 -7.101,4.695c-2.943,0.936 -6.554,1.404 -10.833,1.404c-4.173,-0 -7.731,-0.468 -10.673,-1.404c-2.942,-0.937 -5.323,-2.501 -7.142,-4.695c-1.819,-2.193 -3.129,-5.149 -3.932,-8.867c-0.802,-3.718 -1.203,-8.305 -1.203,-13.762c-0,-5.51 0.401,-10.111 1.203,-13.802c0.803,-3.691 2.113,-6.634 3.932,-8.827c1.819,-2.193 4.2,-3.758 7.142,-4.694c2.942,-0.936 6.5,-1.405 10.673,-1.405Zm-0,8.185c-3.157,0 -5.631,0.629 -7.423,1.886c-1.792,1.257 -3.063,3.37 -3.812,6.34c-0.749,2.969 -1.123,7.074 -1.123,12.317c-0,5.243 0.374,9.349 1.123,12.318c0.749,2.969 2.02,5.082 3.812,6.339c1.792,1.257 4.266,1.886 7.423,1.886c3.209,-0 5.71,-0.629 7.503,-1.886c1.792,-1.257 3.062,-3.37 3.811,-6.339c0.749,-2.969 1.124,-7.075 1.124,-12.318c-0,-5.243 -0.375,-9.348 -1.124,-12.317c-0.749,-2.97 -2.019,-5.083 -3.811,-6.34c-1.793,-1.257 -4.294,-1.886 -7.503,-1.886Z" style="fill:#292929;fill-rule:nonzero;"/>
        <path d="M609.752,18.865l-9.95,52.56c-0.214,0.803 -0.655,1.471 -1.324,2.006c-0.669,0.535 -1.485,0.803 -2.447,0.803l-9.951,-0c-0.909,-0 -1.712,-0.268 -2.407,-0.803c-0.696,-0.535 -1.097,-1.23 -1.204,-2.086l-7.302,-38.437c-0.214,-1.177 -0.401,-2.328 -0.562,-3.451c-0.16,-1.123 -0.321,-2.247 -0.481,-3.37l-1.605,-0c-0.161,1.123 -0.335,2.26 -0.522,3.41c-0.187,1.15 -0.361,2.287 -0.521,3.411l-7.222,38.437c-0.161,0.856 -0.589,1.551 -1.284,2.086c-0.696,0.535 -1.498,0.803 -2.408,0.803l-10.03,-0c-0.963,-0 -1.779,-0.268 -2.448,-0.803c-0.668,-0.535 -1.083,-1.203 -1.244,-2.006l-9.95,-52.56l10.271,-0l6.982,40.523c0.16,1.07 0.307,2.247 0.441,3.531c0.134,1.284 0.281,2.595 0.441,3.932l1.686,0c0.214,-1.23 0.428,-2.501 0.642,-3.812c0.213,-1.31 0.427,-2.554 0.641,-3.731l7.142,-37.314c0.107,-0.963 0.508,-1.725 1.204,-2.287c0.695,-0.561 1.498,-0.842 2.407,-0.842l9.068,-0c0.963,-0 1.765,0.281 2.407,0.842c0.642,0.562 1.07,1.324 1.284,2.287l7.142,37.394c0.267,1.231 0.495,2.488 0.682,3.772c0.187,1.284 0.361,2.514 0.522,3.691l1.765,0c0.107,-1.23 0.241,-2.487 0.401,-3.771c0.161,-1.284 0.321,-2.488 0.482,-3.611l6.981,-40.604l10.271,-0Z" style="fill:#292929;fill-rule:nonzero;"/>
        <path d="M404.331,93.981l-0,-93.981l-8.333,0l-0,93.981l8.333,-0Z" style="fill:#fcd35a;"/>
        <path d="M125.223,19.464l8.431,0c2.876,0 5.713,0.053 8.51,0.159c2.798,0.105 5.436,0.264 7.917,0.475l-0.475,7.362l-21.375,0c-1.478,0 -2.573,0.37 -3.285,1.108c-0.713,0.739 -1.069,1.9 -1.069,3.484l-0,29.766c-0,1.584 0.356,2.745 1.069,3.484c0.712,0.739 1.807,1.108 3.285,1.108l21.375,0l0.475,7.363c-2.481,0.211 -5.119,0.356 -7.917,0.435c-2.797,0.079 -5.634,0.132 -8.51,0.158c-2.876,0.027 -5.687,0.04 -8.431,0.04c-3.378,-0 -6.083,-0.937 -8.115,-2.81c-2.032,-1.874 -3.074,-4.394 -3.127,-7.561l-0,-34.2c0.053,-3.167 1.095,-5.687 3.127,-7.56c2.032,-1.874 4.737,-2.811 8.115,-2.811Zm-9.817,22.563l31.192,-0l-0,7.283l-31.192,0l-0,-7.283Z" style="fill:#292929;fill-rule:nonzero;"/>
        <path d="M212.86,19.623c2.481,-0 3.747,1.266 3.8,3.8l2.138,50.825l-9.421,-0l-1.9,-46.788l-1.504,0l-10.213,36.654c-0.475,2.164 -1.821,3.246 -4.037,3.246l-6.967,0c-2.269,0 -3.668,-1.082 -4.196,-3.246l-10.212,-36.654l-1.505,0l-1.741,46.788l-9.421,-0l2.137,-50.825c0.106,-2.534 1.373,-3.8 3.8,-3.8l9.896,-0c2.111,-0 3.431,1.082 3.959,3.245l8.391,29.925c0.37,1.267 0.673,2.534 0.911,3.8c0.237,1.267 0.514,2.534 0.831,3.8l1.187,0c0.317,-1.266 0.607,-2.533 0.871,-3.8c0.264,-1.266 0.554,-2.559 0.871,-3.879l8.392,-29.846c0.475,-2.163 1.821,-3.245 4.037,-3.245l9.896,-0Z" style="fill:#292929;fill-rule:nonzero;"/>
        <path d="M238.985,19.464l8.431,0c2.877,0 5.714,0.053 8.511,0.159c2.797,0.105 5.436,0.264 7.916,0.475l-0.475,7.362l-21.375,0c-1.477,0 -2.572,0.37 -3.285,1.108c-0.712,0.739 -1.069,1.9 -1.069,3.484l0,29.766c0,1.584 0.357,2.745 1.069,3.484c0.713,0.739 1.808,1.108 3.285,1.108l21.375,0l0.475,7.363c-2.48,0.211 -5.119,0.356 -7.916,0.435c-2.797,0.079 -5.634,0.132 -8.511,0.158c-2.876,0.027 -5.686,0.04 -8.431,0.04c-3.378,-0 -6.082,-0.937 -8.114,-2.81c-2.032,-1.874 -3.075,-4.394 -3.128,-7.561l0,-34.2c0.053,-3.167 1.096,-5.687 3.128,-7.56c2.032,-1.874 4.736,-2.811 8.114,-2.811Zm-9.817,22.563l31.192,-0l0,7.283l-31.192,0l0,-7.283Z" style="fill:#292929;fill-rule:nonzero;"/>
        <path d="M316.964,19.623l0,50.904c0,2.48 -1.214,3.721 -3.641,3.721l-6.73,-0c-1.108,-0 -1.952,-0.251 -2.533,-0.752c-0.58,-0.502 -1.108,-1.254 -1.583,-2.257l-16.546,-32.933c-0.528,-1.161 -1.108,-2.441 -1.742,-3.84c-0.633,-1.398 -1.134,-2.731 -1.504,-3.998l-1.029,0c0.106,1.32 0.198,2.653 0.277,3.998c0.079,1.346 0.119,2.679 0.119,3.998l-0,35.784l-9.5,-0l-0,-50.905c-0,-2.48 1.214,-3.72 3.641,-3.72l6.571,-0c1.109,-0 1.953,0.25 2.534,0.752c0.58,0.501 1.108,1.253 1.583,2.256l16.071,32.062c0.633,1.162 1.28,2.468 1.939,3.919c0.66,1.452 1.28,2.916 1.861,4.394l1.187,-0c-0.105,-1.531 -0.198,-3.022 -0.277,-4.473c-0.079,-1.451 -0.119,-2.89 -0.119,-4.315l0,-34.595l9.421,-0Z" style="fill:#292929;fill-rule:nonzero;"/>
        <path d="M370.164,19.623l0,33.25c0,5.436 -0.659,9.79 -1.979,13.062c-1.319,3.272 -3.483,5.647 -6.492,7.125c-3.008,1.478 -7.045,2.217 -12.112,2.217c-5.278,-0 -9.5,-0.739 -12.667,-2.217c-3.166,-1.478 -5.449,-3.853 -6.848,-7.125c-1.398,-3.272 -2.098,-7.626 -2.098,-13.062l0,-33.25l9.896,-0l0,33.25c0,3.589 0.357,6.439 1.069,8.55c0.713,2.111 1.887,3.602 3.523,4.473c1.636,0.87 3.853,1.306 6.65,1.306c2.797,-0 5.001,-0.436 6.61,-1.306c1.61,-0.871 2.771,-2.362 3.484,-4.473c0.712,-2.111 1.068,-4.961 1.068,-8.55l0,-33.25l9.896,-0Z" style="fill:#292929;fill-rule:nonzero;"/>
        <g>
            <path d="M93.981,19.572c-0,-10.592 -8.6,-19.192 -19.192,-19.192l-55.597,0c-10.593,0 -19.192,8.6 -19.192,19.192l0,55.597c0,10.593 8.599,19.192 19.192,19.192l55.597,0c10.592,0 19.192,-8.599 19.192,-19.192l-0,-55.597Zm-16.446,-0l-0,55.597c-0,1.516 -1.231,2.746 -2.746,2.746c0,-0 -55.597,-0 -55.597,-0c-1.515,-0 -2.746,-1.23 -2.746,-2.746l0,-55.597c0,-1.515 1.231,-2.745 2.746,-2.745l55.597,-0c1.515,-0 2.746,1.23 2.746,2.745Z" style="fill:#04aec4;"/>
            <path d="M26.691,55.594l40.599,-0l-0,-16.447l-40.599,0l0,16.447Z" style="fill:#04aec4;"/>
        </g>
    </g>
</svg>
